<svg width="16" height="15" viewBox="0 0 16 15" fill="none" xmlns="http://www.w3.org/2000/svg">
<path d="M14.5 3C15.3125 3 16 3.6875 16 4.5V13.5C16 14.3438 15.3125 15 14.5 15H1.5C0.65625 15 0 14.3438 0 13.5V4.5C0 3.6875 0.65625 3 1.5 3H4V1.5C4 0.6875 4.65625 0 5.5 0H10.5C11.3125 0 12 0.6875 12 1.5V3H14.5ZM6 2V3H10V2H6ZM11 9.75V8.25C11 8.125 10.875 8 10.75 8H9V6.25C9 6.125 8.875 6 8.75 6H7.25C7.09375 6 7 6.125 7 6.25V8H5.25C5.09375 8 5 8.125 5 8.25V9.75C5 9.90625 5.09375 10 5.25 10H7V11.75C7 11.9062 7.09375 12 7.25 12H8.75C8.875 12 9 11.9062 9 11.75V10H10.75C10.875 10 11 9.90625 11 9.75Z" fill="#101820"/>
</svg>
