<svg viewBox="0 0 56 56" fill="none">
<path d="M27.9962 14.2085L28.0041 14.2085C29.8074 14.2085 31.272 12.7454 31.272 10.9405L31.272 7.26802C31.272 5.46312 29.8074 4.00007 28.0041 4.00007L27.9962 4.00007C26.1898 4.00007 24.7283 5.46312 24.7283 7.26802L24.7283 10.9405C24.7283 12.7454 26.1898 14.2085 27.9962 14.2085Z" fill="currentColor"></path>
<path d="M27.9962 52L28.0041 52C29.8074 52 31.272 50.5369 31.272 48.732L31.272 45.0595C31.272 43.2546 29.8074 41.7916 28.0041 41.7916L27.9962 41.7916C26.1898 41.7916 24.7283 43.2546 24.7283 45.0595L24.7283 48.732C24.7283 50.5369 26.1898 52 27.9962 52Z" fill="currentColor"></path>
<path d="M41.7917 27.9964L41.7917 28.0043C41.7917 29.8076 43.2548 31.2722 45.0597 31.2722L48.7322 31.2722C50.5371 31.2722 52.0002 29.8076 52.0002 28.0043L52.0002 27.9964C52.0002 26.19 50.5371 24.7285 48.7322 24.7285L45.0597 24.7285C43.2548 24.7285 41.7917 26.19 41.7917 27.9964Z" fill="currentColor"></path>
<path d="M4 27.9964L4 28.0043C4 29.8076 5.46305 31.2722 7.26795 31.2722L10.9405 31.2722C12.7454 31.2722 14.2084 29.8076 14.2084 28.0043L14.2084 27.9964C14.2084 26.19 12.7454 24.7285 10.9405 24.7285L7.26795 24.7285C5.46305 24.7285 4 26.19 4 27.9964Z" fill="currentColor"></path>
<path d="M37.7491 18.2449L37.7546 18.2505C39.0298 19.5256 41.1 19.5267 42.3762 18.2505L44.9731 15.6536C46.2493 14.3774 46.2482 12.3072 44.9731 11.032L44.9675 11.0265C43.6902 9.74914 41.6222 9.75024 40.346 11.0265L37.7491 13.6234C36.4728 14.8996 36.4717 16.9676 37.7491 18.2449Z" fill="currentColor"></path>
<path d="M11.0266 44.9674L11.0321 44.9729C12.3073 46.2481 14.3774 46.2492 15.6537 44.9729L18.2506 42.376C19.5268 41.0998 19.5257 39.0296 18.2506 37.7545L18.245 37.7489C16.9676 36.4715 14.8997 36.4727 13.6234 37.7489L11.0266 40.3458C9.75031 41.622 9.7492 43.69 11.0266 44.9674Z" fill="currentColor"></path>
<path d="M37.7551 37.7498L37.7495 37.7554C36.4744 39.0305 36.4733 41.1007 37.7495 42.377L40.3464 44.9738C41.6226 46.2501 43.6928 46.249 44.968 44.9738L44.9735 44.9683C46.2509 43.6909 46.2498 41.623 44.9735 40.3467L42.3766 37.7498C41.1004 36.4736 39.0324 36.4725 37.7551 37.7498Z" fill="currentColor"></path>
<path d="M11.0322 11.0272L11.0266 11.0327C9.75146 12.3079 9.75035 14.378 11.0266 15.6543L13.6235 18.2512C14.8997 19.5274 16.9699 19.5263 18.2451 18.2512L18.2506 18.2456C19.528 16.9683 19.5269 14.9003 18.2506 13.624L15.6537 11.0272C14.3775 9.75092 12.3095 9.74981 11.0322 11.0272Z" fill="currentColor"></path>
</svg>