<svg width="36" height="80" viewBox="0 0 36 80" fill="none" xmlns="http://www.w3.org/2000/svg">
<path d="M14.2144 30.1788C13.5643 30.7989 13.8787 31.2911 14.0681 32.2713C14.4335 33.9424 15.062 35.5448 15.93 37.0188C16.0774 33.0495 20.142 30.2518 24.03 30.5107L25.5206 30.5106C25.0028 29.8665 24.4307 29.2681 23.8106 28.7219V24.8125C23.8102 24.6635 23.7508 24.5206 23.6454 24.4152C23.54 24.3099 23.3972 24.2504 23.2481 24.25H19.7437C19.6698 24.2499 19.5966 24.2644 19.5284 24.2926C19.4601 24.3208 19.398 24.3623 19.3458 24.4145C19.2935 24.4668 19.2521 24.5288 19.2238 24.5971C19.1956 24.6654 19.1811 24.7386 19.1812 24.8125V27.2256C18.9652 27.2217 18.7492 27.2311 18.5344 27.2538L16.3012 25.0206C16.1944 24.9158 16.0504 24.8576 15.9007 24.8587C15.751 24.8597 15.6079 24.92 15.5025 25.0263L12.7069 27.8838C12.6028 27.9895 12.5444 28.1319 12.5444 28.2803C12.5444 28.4287 12.6028 28.5711 12.7069 28.6769L14.2144 30.1788Z" fill="#FFFEFE"/>
<path d="M28.8956 31.6354H23.5744C20.3132 31.5588 17.0154 34.0223 17.0437 37.3279C17.0423 37.593 16.9832 37.8545 16.8705 38.0944C16.7579 38.3344 16.5943 38.5469 16.3912 38.7172L14.4675 40.4216C14.355 40.5165 14.2099 40.5637 14.0631 40.553C13.9163 40.5424 13.7795 40.4748 13.6818 40.3647C13.5842 40.2545 13.5335 40.1106 13.5405 39.9636C13.5475 39.8166 13.6117 39.6782 13.7194 39.5779L15.3281 38.1547C14.0505 36.2176 13.1904 34.0357 12.8025 31.7479C6.78374 34.5379 6.91874 39.7972 6.92437 39.966C6.73874 42.9922 9.14062 49.3035 12.5212 52.8979C19.908 60.7897 26.5806 50.2867 27.5342 47.194C29.3231 43.0991 29.5706 39.1447 28.2712 35.4097H27.0787C24.3204 35.2067 21.9052 37.1661 22.14 39.7016C22.137 39.8488 22.0764 39.9889 21.9712 40.0919C21.866 40.1949 21.7247 40.2526 21.5775 40.2526C21.4303 40.2525 21.289 40.1949 21.1838 40.0918C21.0786 39.9888 21.018 39.8487 21.015 39.7016V39.291C20.982 36.3165 23.9625 34.039 27.1688 34.2848C27.5426 34.2822 28.5146 34.2866 28.8956 34.2847C29.2723 34.2764 29.6247 34.0064 29.6156 33.7166V32.2147C29.5936 32.0439 29.5063 31.8882 29.3721 31.7802C29.238 31.6723 29.0672 31.6203 28.8956 31.6354ZM24.3562 45.1466C24.4115 45.0106 24.5176 44.9014 24.652 44.8423C24.7864 44.7832 24.9386 44.7788 25.0762 44.8301C25.2138 44.8813 25.326 44.9841 25.389 45.1167C25.452 45.2494 25.4609 45.4013 25.4137 45.5404C24.4117 48.0051 22.9058 50.2333 20.9925 52.0822C20.8839 52.1819 20.7404 52.2348 20.5931 52.2295C20.4459 52.2242 20.3066 52.1612 20.2053 52.0541C20.1041 51.947 20.0491 51.8043 20.0522 51.657C20.0553 51.5096 20.1162 51.3694 20.2219 51.2666C22.0043 49.5311 23.4115 47.4481 24.3562 45.1466Z" fill="#FFFEFE"/>
</svg>
