<svg viewBox="0 0 24 25" fill="none" xmlns="http://www.w3.org/2000/svg">
<path d="M16.5562 13.8105L16.1007 14.2633C16.1007 14.2633 15.0181 15.3398 12.0631 12.4015C9.10812 9.46331 10.1907 8.38687 10.1907 8.38687L10.4775 8.10168C11.1841 7.39914 11.2507 6.27121 10.6342 5.44778L9.37326 3.76338C8.61028 2.74421 7.13596 2.60958 6.26145 3.47913L4.69185 5.03981C4.25823 5.47097 3.96765 6.02989 4.00289 6.6499C4.09304 8.23612 4.81071 11.649 8.81536 15.6309C13.0621 19.8535 17.0468 20.0213 18.6763 19.8694C19.1917 19.8214 19.6399 19.5589 20.0011 19.1997L21.4217 17.7873C22.3806 16.8338 22.1102 15.1992 20.8833 14.5323L18.9728 13.4937C18.1672 13.0558 17.1858 13.1844 16.5562 13.8105Z" fill="currentColor"/>
</svg>
