<svg viewBox="0 0 19 18" fill="none" xmlns="http://www.w3.org/2000/svg">
<path d="M3.45215 3.02193C3.45215 3.02193 3.85393 2.62014 4.6575 1.81657C5.46107 1.013 6.99857 0.611216 9.27 0.611216C11.5414 0.611216 13.4807 1.41479 15.0879 3.02193C16.695 4.62907 17.4986 6.56836 17.4986 8.83979C17.4986 11.1112 16.695 13.0505 15.0879 14.6576C13.4807 16.2648 11.5414 17.0684 9.27 17.0684C6.99857 17.0684 5.05929 16.2648 3.45215 14.6576C1.845 13.0505 1.04143 11.1112 1.04143 8.83979C1.04143 6.56836 1.845 4.62907 3.45215 3.02193ZM4.17536 13.9344C4.17536 13.9344 4.52625 14.2853 5.22804 14.9871C5.92982 15.6889 7.27715 16.0398 9.27 16.0398C11.2629 16.0398 12.9611 15.338 14.3646 13.9344C15.7682 12.5309 16.47 10.8326 16.47 8.83979C16.47 6.84693 15.7682 5.14872 14.3646 3.74514C12.9611 2.34157 11.2629 1.63979 9.27 1.63979C7.27715 1.63979 5.57893 2.34157 4.17536 3.74514C2.77179 5.14872 2.07 6.84693 2.07 8.83979C2.07 10.8326 2.77179 12.5309 4.17536 13.9344ZM9.78429 3.69693V8.61479L12.7093 11.5719L12.0021 12.2791L8.75572 9.06479V3.69693H9.78429Z" fill="currentColor"/>
</svg>
