<svg width="59" height="59" viewBox="0 0 59 59" fill="none" xmlns="http://www.w3.org/2000/svg">
<rect width="59" height="59" rx="29.5" fill="#101820"/>
<path d="M29.5 19.3125C34.8516 19.3125 39.1875 23.6484 39.1875 29C39.1875 34.3516 34.8516 38.6875 29.5 38.6875C24.1484 38.6875 19.8125 34.3516 19.8125 29C19.8125 23.6484 24.1484 19.3125 29.5 19.3125ZM33.0938 31.5391C33.1719 31.4609 33.25 31.3047 33.25 31.1484C33.25 30.9531 33.1328 30.7969 33.0156 30.6797L30.75 29V23.375C30.75 23.0625 30.4375 22.75 30.125 22.75H28.875C28.5234 22.75 28.25 23.0625 28.25 23.375V29.4688C28.25 29.9766 28.4453 30.4062 28.8359 30.6797L31.4531 32.6328C31.5312 32.7109 31.6875 32.7891 31.8047 32.7891C32.0391 32.7891 32.1953 32.6719 32.3125 32.5156L33.0938 31.5391Z" fill="white"/>
</svg>
