<svg width="36" height="80" viewBox="0 0 36 80" fill="none" xmlns="http://www.w3.org/2000/svg">
<path d="M20.43 24.0815C16.8019 25.3752 15.66 23.4346 12.6225 23.7158C7.05375 24.2333 4.15125 31.0283 7.80187 35.5283C8.48812 36.3833 9.00562 39.044 9.36562 40.0846C9.53329 40.5479 9.83877 40.9488 10.241 41.2334C10.6432 41.5179 11.1229 41.6726 11.6156 41.6765H24.3619C24.8546 41.6726 25.3343 41.5179 25.7365 41.2334C26.1387 40.9488 26.4442 40.5479 26.6119 40.0846C26.9719 39.044 27.4894 36.3833 28.1756 35.5283C32.6925 29.9483 27.1631 21.7133 20.43 24.0815ZM23.49 26.5283C21.8135 27.478 19.9265 27.9943 18 28.0302C16.0735 27.9943 14.1865 27.478 12.51 26.5283C12.4081 26.4428 12.3398 26.324 12.3173 26.1929C12.2947 26.0618 12.3194 25.927 12.3868 25.8123C12.4543 25.6977 12.5601 25.6106 12.6857 25.5666C12.8112 25.5227 12.9483 25.5246 13.0725 25.5721C16.6275 27.3496 19.3275 27.3496 22.8825 25.5721C22.9453 25.5322 23.0153 25.5051 23.0886 25.4922C23.1619 25.4794 23.2369 25.4811 23.3095 25.4973C23.3822 25.5135 23.4509 25.5439 23.5117 25.5866C23.5726 25.6294 23.6245 25.6837 23.6644 25.7465C23.7043 25.8092 23.7314 25.8793 23.7442 25.9526C23.757 26.0258 23.7553 26.1009 23.7391 26.1735C23.7229 26.2461 23.6926 26.3148 23.6498 26.3757C23.6071 26.4366 23.5528 26.4884 23.49 26.5283Z" fill="#FFFEFE"/>
<path d="M15.7781 56.3124H20.25L20.9362 55.0018L14.7487 54.2705C15.0356 54.8949 15.3787 55.5474 15.7781 56.3124Z" fill="#FFFEFE"/>
<path d="M24.2381 44.5L23.4788 44.4325L23.5913 42.8125H12.4088L12.4481 43.4312L11.8856 43.375C11.7364 43.3616 11.588 43.408 11.4731 43.504C11.3581 43.5999 11.2859 43.7377 11.2725 43.8869C11.2591 44.0361 11.3055 44.1845 11.4015 44.2995C11.4975 44.4144 11.6352 44.4866 11.7844 44.5L24.1594 45.625C24.3086 45.6354 24.4558 45.5862 24.5687 45.4881C24.6815 45.39 24.7508 45.2511 24.7613 45.1019C24.7717 44.9527 24.7225 44.8055 24.6243 44.6926C24.5262 44.5797 24.3873 44.5104 24.2381 44.5Z" fill="#FFFEFE"/>
<path d="M24.2381 47.3129L23.2875 47.2285L23.3269 46.666L12.6056 45.7041L12.645 46.2666L11.8631 46.1879C11.7139 46.1744 11.5655 46.2208 11.4505 46.3168C11.3356 46.4128 11.2634 46.5505 11.25 46.6997C11.2366 46.8489 11.2829 46.9973 11.3789 47.1123C11.4749 47.2273 11.6127 47.2994 11.7619 47.3129L24.1369 48.4379C24.286 48.4513 24.4345 48.4049 24.5494 48.3089C24.6644 48.2129 24.7366 48.0752 24.75 47.926C24.7634 47.7768 24.717 47.6284 24.621 47.5134C24.525 47.3984 24.3873 47.3263 24.2381 47.3129Z" fill="#FFFEFE"/>
<path d="M23.6812 50.1251L23.1187 50.0688L23.1581 49.4726L12.8025 48.5332L12.8362 49.0451L12.4312 49.0001C12.2821 48.9852 12.1331 49.0301 12.017 49.1251C11.901 49.22 11.8274 49.3571 11.8125 49.5063C11.7976 49.6555 11.8425 49.8045 11.9375 49.9206C12.0324 50.0366 12.1696 50.1102 12.3187 50.1251L23.5688 51.2501C23.7179 51.265 23.8669 51.22 23.983 51.1251C24.099 51.0302 24.1726 50.893 24.1875 50.7438C24.2024 50.5946 24.1575 50.4456 24.0625 50.3296C23.9676 50.2136 23.8304 50.14 23.6812 50.1251Z" fill="#FFFEFE"/>
<path d="M22.5675 52.9381L22.005 52.8706L22.3313 52.2462L13.1681 51.335L13.4438 51.8975L13.005 51.8131C12.8558 51.7952 12.7056 51.8373 12.5875 51.9301C12.4693 52.0229 12.3929 52.1589 12.375 52.3081C12.3571 52.4573 12.3992 52.6075 12.492 52.7256C12.5849 52.8438 12.7208 52.9202 12.87 52.9381L22.4325 54.0631C22.5817 54.081 22.7319 54.0389 22.85 53.9461C22.9682 53.8532 23.0446 53.7173 23.0625 53.5681C23.0804 53.4189 23.0383 53.2687 22.9455 53.1506C22.8527 53.0324 22.7167 52.956 22.5675 52.9381Z" fill="#FFFEFE"/>
</svg>
