<svg width="25" height="31" viewBox="0 0 25 31" fill="none" xmlns="http://www.w3.org/2000/svg">
<path d="M12.0829 0C8.37129 0 5.35266 3.01992 5.35266 6.73217C5.35266 10.4457 8.37193 13.4663 12.0829 13.4663C15.7938 13.4663 18.8138 10.4457 18.8138 6.73217C18.8138 3.01992 15.7938 0 12.0829 0Z" fill="white"/>
<path d="M17.2838 15.3672C17.5234 16.4038 17.9019 18.2883 17.7759 19.3811C18.766 20.2588 21.3635 22.846 20.7984 25.3989C20.7945 25.4293 20.5272 26.8973 18.7059 27.5205C18.6368 27.5444 18.5658 27.556 18.4967 27.556C18.228 27.556 17.9781 27.3868 17.8864 27.1181C17.7701 26.7804 17.9509 26.4129 18.2887 26.2979C19.3724 25.9272 19.53 25.1587 19.5326 25.1516C19.9188 23.4007 17.9813 21.2753 16.904 20.3304C15.615 20.9563 13.1776 22.4914 13.0833 24.2494C13.0794 24.3036 13.0394 25.0818 13.9713 25.716C14.2665 25.9169 14.3433 26.3193 14.1418 26.6144C14.0172 26.7972 13.8137 26.8973 13.6084 26.8973C13.4824 26.8973 13.3558 26.8605 13.2447 26.7849C11.6515 25.7012 11.789 24.2106 11.7949 24.1473C11.9415 21.4187 15.5077 19.5593 16.503 19.0917C16.5624 18.123 16.16 16.1222 15.8636 14.992C15.8546 14.9565 15.861 14.9222 15.8571 14.8867C14.9175 14.631 13.9326 14.4824 12.9115 14.4824H11.2536C10.1105 14.4824 9.00744 14.6568 7.967 14.9752C7.95602 15.021 7.95344 15.0688 7.93083 15.1134C7.91662 15.1425 6.5184 18.0448 5.84996 22.4837C6.97306 22.7937 7.80489 23.8134 7.80489 25.0328C7.80489 26.4962 6.61398 27.6865 5.15117 27.6865C3.68706 27.6865 2.49615 26.4956 2.49615 25.0328C2.49615 23.7779 3.37512 22.7284 4.5486 22.4546C5.00262 19.3275 5.79442 16.9463 6.30075 15.6469C2.57558 17.4836 0 21.3115 0 25.7393V30.3551C0 30.7122 0.288687 31.0009 0.645833 31.0009H23.5225C23.8797 31.0009 24.1684 30.7032 24.1684 30.346V25.7393C24.1671 21.0828 21.3254 17.0774 17.2838 15.3672Z" fill="white"/>
</svg>
