<svg viewBox="0 0 24 25" fill="none" xmlns="http://www.w3.org/2000/svg">
<path fill-rule="evenodd" clip-rule="evenodd" d="M3.17157 6.07587C2 7.24744 2 9.13306 2 12.9043C2 16.6755 2 18.5612 3.17157 19.7327C4.34315 20.9043 6.22876 20.9043 10 20.9043H14C17.7712 20.9043 19.6569 20.9043 20.8284 19.7327C22 18.5612 22 16.6755 22 12.9043C22 9.13306 22 7.24744 20.8284 6.07587C19.6569 4.9043 17.7712 4.9043 14 4.9043H10C6.22876 4.9043 4.34315 4.9043 3.17157 6.07587ZM18.5762 8.42416C18.8413 8.74237 18.7983 9.21529 18.4801 9.48046L16.2837 11.3109C15.3973 12.0495 14.6789 12.6482 14.0448 13.056C13.3843 13.4808 12.7411 13.7492 12 13.7492C11.2589 13.7492 10.6157 13.4808 9.95518 13.056C9.32112 12.6482 8.60271 12.0495 7.71636 11.3109L5.51986 9.48046C5.20165 9.21529 5.15866 8.74237 5.42383 8.42416C5.68901 8.10595 6.16193 8.06296 6.48014 8.32813L8.63903 10.1272C9.57199 10.9047 10.2197 11.4427 10.7666 11.7944C11.2959 12.1349 11.6549 12.2492 12 12.2492C12.3451 12.2492 12.7041 12.1349 13.2334 11.7944C13.7803 11.4427 14.428 10.9047 15.361 10.1272L17.5199 8.32813C17.8381 8.06296 18.311 8.10595 18.5762 8.42416Z" fill="currentColor"/>
</svg>
