<svg  viewBox="0 0 87 86" fill="none" xmlns="http://www.w3.org/2000/svg">
<g clip-path="url(#clip0_41_476)">
<g clip-path="url(#clip1_41_476)">
<mask id="mask0_41_476" style="mask-type:luminance" maskUnits="userSpaceOnUse" x="1" y="0" width="85" height="86">
<path d="M85.9507 0H1.93066V85.04H85.9507V0Z" fill="white"/>
</mask>
<g mask="url(#mask0_41_476)">
<path d="M33.7707 73.18V63.21L33.3107 62.98C25.3707 58.94 20.4307 50.91 20.4307 42.02C20.4307 29.06 30.9707 18.52 43.9307 18.52C56.8907 18.52 67.4307 29.06 67.4307 42.02C67.4307 50.92 62.5007 58.95 54.5507 62.98L54.0907 63.21V73.18H33.7607H33.7707Z" fill="white"/>
<path d="M43.9408 19.3499C56.4308 19.3499 66.6008 29.5099 66.6008 42.0099C66.6008 50.5799 61.8408 58.3299 54.1908 62.2199L53.2608 62.6899V72.3299H34.6208V62.6899L33.6908 62.2199C26.0308 58.3299 21.2808 50.5899 21.2808 42.0099C21.2808 29.5199 31.4408 19.3499 43.9408 19.3499ZM43.9408 17.6599C30.4908 17.6599 19.5908 28.5599 19.5908 42.0099C19.5908 51.4899 25.0208 59.7099 32.9308 63.7299V74.0299H54.9508V63.7299C62.8608 59.7099 68.2908 51.4999 68.2908 42.0099C68.2908 28.5599 57.3908 17.6599 43.9408 17.6599Z" fill="#F36103"/>
<path d="M38.0606 84.05V78.9H33.9106V73.27H53.9606V78.9H49.8206V84.05H38.0606Z" fill="white"/>
<path d="M52.9807 74.26V77.92H48.8307V83.07H39.0407V77.92H34.8907V74.26H52.9707M54.9507 72.29H32.9307V79.89H37.0807V85.04H50.8107V79.89H54.9607V72.29H54.9507Z" fill="#F36103"/>
<path d="M43.9407 0V12.3" stroke="#F36103" stroke-width="1.41" stroke-miterlimit="10"/>
<path d="M22.9407 63.01L14.2307 71.71" stroke="#F36103" stroke-width="1.41" stroke-miterlimit="10"/>
<path d="M73.6407 12.3L64.9407 21" stroke="#F36103" stroke-width="1.41" stroke-miterlimit="10"/>
<path d="M85.9506 42.01H73.6406" stroke="#F36103" stroke-width="1.41" stroke-miterlimit="10"/>
<path d="M14.2307 42.01H1.93066" stroke="#F36103" stroke-width="1.41" stroke-miterlimit="10"/>
<path d="M73.6407 71.71L64.9407 63.01" stroke="#F36103" stroke-width="1.41" stroke-miterlimit="10"/>
<path d="M22.9307 21L14.2307 12.3" stroke="#F36103" stroke-width="1.41" stroke-miterlimit="10"/>
<path d="M39.0207 45.3199C39.0807 45.0499 38.9907 44.7599 38.7807 44.5699L33.2007 39.6199L40.6307 38.8999C40.9107 38.8699 41.1507 38.6999 41.2607 38.4399L44.2407 31.5999L47.2207 38.4399C47.3307 38.6999 47.5707 38.8699 47.8507 38.8999L55.2807 39.6199L49.6907 44.5699C49.4807 44.7599 49.3907 45.0399 49.4507 45.3199L51.0607 52.5999L44.6307 48.8199C44.5107 48.7499 44.3707 48.7099 44.2407 48.7099C44.1107 48.7099 43.9707 48.7499 43.8507 48.8199L37.4107 52.5999L39.0207 45.3199Z" fill="white"/>
<path d="M44.2506 33.5399L46.5206 38.7599C46.7406 39.2699 47.2306 39.6299 47.7906 39.6799L53.4506 40.2299L49.1906 43.9999C48.7706 44.3699 48.5806 44.9399 48.7106 45.4899L49.9306 51.0299L45.0306 48.1499C44.7906 48.0099 44.5206 47.9399 44.2506 47.9399C43.9806 47.9399 43.7106 48.0099 43.4706 48.1499L38.5606 51.0299L39.7806 45.4799C39.9006 44.9299 39.7206 44.3599 39.3006 43.9899L35.0506 40.2099L40.7106 39.6599C41.2706 39.6099 41.7506 39.2499 41.9806 38.7399L44.2506 33.5199M44.2506 29.6599L40.5606 38.1299L31.3706 39.0199L38.2806 45.1499L36.2906 54.1599L44.2606 49.4799L52.2206 54.1599L50.2306 45.1499L57.1506 39.0199L47.9606 38.1299L44.2706 29.6599H44.2506Z" fill="#F36103"/>
</g>
</g>
</g>
<defs>
<clipPath id="clip0_41_476">
<rect width="87" height="86" rx="10" fill="white"/>
</clipPath>
<clipPath id="clip1_41_476">
<rect width="85" height="86" fill="white" transform="translate(1)"/>
</clipPath>
</defs>
</svg>
