<svg viewBox="0 0 17 17" fill="none" xmlns="http://www.w3.org/2000/svg">
<g clip-path="url(#clip0_137_179)">
<path d="M8.85986 4.5C8.07861 4.5 7.28695 4.625 6.48486 4.875C5.80778 5.09375 5.13591 5.40104 4.46924 5.79688C3.92757 6.10938 3.39632 6.46875 2.87549 6.875C2.5109 7.16667 2.16715 7.47396 1.84424 7.79688L1.48486 8.17188L1.18799 8.5L1.48486 8.82812L1.81299 9.17188C2.10465 9.46354 2.42236 9.74479 2.76611 10.0156C3.23486 10.401 3.71924 10.75 4.21924 11.0625C4.84424 11.4375 5.46924 11.7396 6.09424 11.9688C6.83382 12.25 7.5682 12.4167 8.29736 12.4688C8.46403 12.4896 8.65153 12.5 8.85986 12.5C9.0682 12.5 9.2557 12.4896 9.42236 12.4688C10.1515 12.4167 10.8859 12.25 11.6255 11.9688C12.2505 11.7396 12.8755 11.4375 13.5005 11.0625C14.0005 10.75 14.4849 10.401 14.9536 10.0156C15.2974 9.74479 15.6151 9.46354 15.9067 9.17188L16.2349 8.82812L16.5317 8.5L16.2349 8.17188L15.8755 7.79688C15.5526 7.47396 15.2088 7.16667 14.8442 6.875C14.3234 6.46875 13.7922 6.10938 13.2505 5.79688C12.5838 5.40104 11.9119 5.09375 11.2349 4.875C10.4328 4.625 9.64111 4.5 8.85986 4.5ZM8.85986 5.5C9.82861 5.5 10.8286 5.73438 11.8599 6.20312C12.1932 6.75521 12.3599 7.35417 12.3599 8C12.3599 8.59375 12.2244 9.14583 11.9536 9.65625C11.6828 10.1667 11.3078 10.5833 10.8286 10.9062C10.3494 11.2292 9.82341 11.4219 9.25049 11.4844L8.85986 11.5C8.77653 11.5 8.64632 11.4948 8.46924 11.4844C7.89632 11.4219 7.37028 11.2292 6.89111 10.9062C6.41195 10.5833 6.03695 10.1667 5.76611 9.65625C5.49528 9.14583 5.35986 8.59375 5.35986 8C5.35986 7.35417 5.52132 6.76042 5.84424 6.21875H5.82861C6.87028 5.73958 7.8807 5.5 8.85986 5.5ZM8.85986 6.5C8.4432 6.5 8.08903 6.64583 7.79736 6.9375C7.5057 7.22917 7.35986 7.58333 7.35986 8C7.35986 8.41667 7.5057 8.77083 7.79736 9.0625C8.08903 9.35417 8.4432 9.5 8.85986 9.5C9.27653 9.5 9.6307 9.35417 9.92236 9.0625C10.214 8.77083 10.3599 8.41667 10.3599 8C10.3599 7.58333 10.214 7.22917 9.92236 6.9375C9.6307 6.64583 9.27653 6.5 8.85986 6.5ZM4.48486 6.96875C4.40153 7.32292 4.35986 7.66667 4.35986 8C4.35986 8.86458 4.58903 9.66146 5.04736 10.3906C4.17236 9.88021 3.36507 9.25 2.62549 8.5C3.16716 7.94792 3.78695 7.4375 4.48486 6.96875ZM13.2349 6.96875C13.9328 7.4375 14.5526 7.94792 15.0942 8.5C14.3547 9.25 13.5474 9.88021 12.6724 10.3906C13.1307 9.66146 13.3599 8.86458 13.3599 8C13.3599 7.66667 13.3182 7.32292 13.2349 6.96875Z" fill="currentColor"/>
</g>
<defs>
<clipPath id="clip0_137_179">
<rect width="16" height="16" fill="white" transform="matrix(1 0 0 -1 0.859863 16.5)"/>
</clipPath>
</defs>
</svg>
