<svg width="18" height="16" viewBox="0 0 18 16" fill="none" xmlns="http://www.w3.org/2000/svg">
<path d="M5 5.5C4.75 5.5 4.5 5.28125 4.5 5V3C4.5 2.71875 4.75 2.5 5 2.5H7V0.5C7 0.21875 7.25 0 7.5 0H9.5C9.78125 0 10 0.21875 10 0.5V2.5H12C12.2812 2.5 12.5 2.71875 12.5 3V5C12.5 5.28125 12.2812 5.5 12 5.5H10V7.5C10 7.78125 9.78125 8 9.5 8H7.5C7.25 8 7 7.78125 7 7.5V5.5H5ZM17.7812 10.5312C17.9062 10.7188 18 10.9688 18 11.25C18 11.6562 17.8125 12.0312 17.5 12.25L13.2812 15.375C12.75 15.7812 12.0625 16 11.3438 16H0.5C0.25 16 0 15.7812 0 15.5V12.5C0 12.25 0.25 12 0.5 12H2.25L3.6875 10.8438C4.3125 10.3125 5.125 10 6 10H11C11.5625 10 12 10.4688 12 11C12 11.0625 12 11.125 12 11.1875C11.9062 11.6562 11.4688 12 10.9688 12H8.5C8.25 12 8 12.25 8 12.5C8 12.7812 8.25 13 8.5 13H12.2812L16.0312 10.25C16.2188 10.0938 16.4688 10 16.75 10C17.1875 10 17.5312 10.2188 17.7812 10.5312Z" fill="#101820"/>
</svg>
