<svg width="18" height="17" viewBox="0 0 18 17" fill="none" xmlns="http://www.w3.org/2000/svg">
<path d="M16.625 9C16.9375 9 17.1875 9.28125 17.125 9.5625C16.9062 11.3125 16.0625 12.8438 14.8438 13.9688C14.6562 14.1562 14.3438 14.1562 14.1562 13.9688L9.21875 9H16.625ZM16.125 7C16.1562 7.28125 15.9062 7.5 15.625 7.5H8.65625V0.53125C8.65625 0.25 8.875 0 9.15625 0.03125C12.9062 0.28125 15.875 3.25 16.125 7ZM7.15625 9L12 13.875C12.2188 14.0938 12.2188 14.4688 11.9688 14.625C10.7812 15.5 9.3125 16 7.75 16C3.71875 16.0625 0.28125 12.7812 0.15625 8.78125C0 4.875 2.84375 1.625 6.59375 1.09375C6.875 1.0625 7.15625 1.3125 7.15625 1.59375V9Z" fill="#101820"/>
</svg>
