<svg viewBox="0 0 25 24" fill="none" xmlns="http://www.w3.org/2000/svg">
<path d="M2.5 12C2.5 7.28595 2.5 4.92893 3.96447 3.46447C5.42893 2 7.78595 2 12.5 2C17.214 2 19.5711 2 21.0355 3.46447C22.5 4.92893 22.5 7.28595 22.5 12C22.5 16.714 22.5 19.0711 21.0355 20.5355C19.5711 22 17.214 22 12.5 22C7.78595 22 5.42893 22 3.96447 20.5355C2.5 19.0711 2.5 16.714 2.5 12Z" stroke="currentColor"/>
<path d="M7.5 14L9.29689 11.8437C10.0089 10.9893 10.365 10.562 10.8333 10.562C11.3017 10.562 11.6577 10.9893 12.3698 11.8437L12.6302 12.1563C13.3423 13.0107 13.6983 13.438 14.1667 13.438C14.635 13.438 14.9911 13.0107 15.7031 12.1563L17.5 10" stroke="currentColor" stroke-width="1.5" stroke-linecap="round"/>
</svg>
