<svg width="36" height="80" viewBox="0 0 36 80" fill="none" xmlns="http://www.w3.org/2000/svg">
<path d="M24.5192 31.9049C24.7411 31.5205 24.6095 31.029 24.2251 30.8071C23.8408 30.5852 23.3493 30.7169 23.1274 31.1012L16.8906 41.9037C16.6687 42.288 16.8005 42.7795 17.1848 43.0014C17.5691 43.2233 18.0606 43.0916 18.2825 42.7072L24.5192 31.9049ZM9.19647 36.9017C8.97457 37.2861 9.10628 37.7776 9.49062 37.9995C9.87496 38.2214 10.3664 38.0897 10.5883 37.7053L16.5827 27.3227C16.8046 26.9383 16.6729 26.4469 16.2886 26.225C15.9042 26.0031 15.4128 26.1348 15.1909 26.5191L9.19647 36.9017Z" fill="#FFFEFE"/>
<path d="M28.1933 28.8164L16.0392 21.7819C15.8614 21.6791 15.634 21.7398 15.5311 21.9175L13.6356 25.1926C13.5327 25.3704 13.5934 25.5978 13.7711 25.7007L25.9253 32.7351C26.103 32.8379 26.3304 32.7773 26.4333 32.5995L28.3289 29.3244C28.4317 29.1467 28.371 28.9192 28.1933 28.8164Z" fill="#FFFEFE"/>
<path d="M11.2859 35.1738L13.8885 36.6764L13.2535 37.7814L10.6509 36.2788L11.2859 35.1738Z" fill="#FFFEFE"/>
<path d="M12.536 33.0127L14.1758 33.9594L13.5358 35.0644L11.896 34.1176L12.536 33.0127Z" fill="#FFFEFE"/>
<path d="M13.7812 30.8516L16.3837 32.3541L15.7488 33.4591L13.1462 31.9566L13.7812 30.8516Z" fill="#FFFEFE"/>
<path fill-rule="evenodd" clip-rule="evenodd" d="M11.0055 55.311L18.2825 42.7069C17.246 42.1085 16.4518 41.0903 15.4153 40.4919C14.3789 39.8935 13.1001 39.7148 12.0636 39.1164C11.0271 38.518 10.2329 37.4998 9.19648 36.9014L1.67711 49.9253C0.196059 52.4906 1.08308 55.8012 3.64847 57.2823C6.21378 58.7634 9.52443 57.8763 11.0055 55.311Z" fill="#FFFEFE"/>
<path fill-rule="evenodd" clip-rule="evenodd" d="M32.1292 30.8125C30.3175 32.9923 29.4822 34.7805 29.2726 36.177C28.8919 38.7131 30.5743 39.9578 32.2187 39.9111C33.7939 39.8662 35.3344 38.6359 34.992 36.2203C34.7933 34.8175 33.9597 33.0149 32.1292 30.8125Z" fill="#FFFEFE"/>
</svg>
