<svg width="31" height="28" viewBox="0 0 31 28" fill="none" xmlns="http://www.w3.org/2000/svg">
<path d="M30.6759 6.98016C30.1596 4.95538 29.0591 3.20946 27.4934 1.93111C25.9682 0.685883 24.0997 0 22.2322 0C20.8004 0 19.4348 0.385513 18.173 1.14566C17.1766 1.74616 16.2802 2.56284 15.4973 3.5822C13.7166 1.26131 11.3657 0 8.76551 0C6.89873 0 5.031 0.685883 3.50597 1.93111C1.94074 3.20946 0.840489 4.95515 0.324185 6.97992C-0.0544692 8.46497 -0.226886 10.5491 0.520253 13.0557H5.21193L6.90606 9.66716C7.06003 9.35946 7.37435 9.16505 7.71824 9.16505C8.06236 9.16505 8.37668 9.35946 8.53042 9.66716L11.6088 15.8238L14.6873 9.66716C14.841 9.35946 15.1553 9.16505 15.4995 9.16505C15.8433 9.16505 16.1577 9.35946 16.3116 9.66716L18.0058 13.0557H24.3313C24.8329 13.0557 25.2392 13.4622 25.2392 13.9636C25.2392 14.4653 24.8329 14.8718 24.3313 14.8718H17.4445C17.1006 14.8718 16.7863 14.6774 16.6323 14.3697L15.4995 12.1037L12.421 18.2603C12.2671 18.568 11.9527 18.7622 11.6088 18.7622C11.2647 18.7622 10.9504 18.568 10.7967 18.2603L7.71847 12.1037L6.58535 14.37C6.43138 14.6774 6.11706 14.8718 5.77317 14.8718H1.20046C1.5039 15.5449 1.87475 16.2417 2.32507 16.9595C4.79709 20.9019 9.08267 24.5548 15.0621 27.8166C15.1977 27.8906 15.3474 27.9275 15.4971 27.9275C15.6468 27.9275 15.7963 27.8906 15.9318 27.8168C21.9132 24.5546 26.1999 20.9019 28.6731 16.9597C31.3452 12.7002 31.2372 9.18184 30.6759 6.98016Z" fill="white"/>
</svg>
