<svg width="33" height="33" viewBox="0 0 33 33" fill="none" xmlns="http://www.w3.org/2000/svg">
<path d="M24.75 3.09375H12.375C11.828 3.09375 11.3034 3.31105 10.9166 3.69784C10.5298 4.08464 10.3125 4.60924 10.3125 5.15625V7.21875H8.25C7.70299 7.21875 7.17839 7.43605 6.79159 7.82284C6.4048 8.20964 6.1875 8.73424 6.1875 9.28125V28.875C6.1875 29.0645 6.2397 29.2503 6.33837 29.4121C6.43705 29.5738 6.57838 29.7053 6.74686 29.792C6.91535 29.8787 7.10446 29.9173 7.29344 29.9036C7.48243 29.8898 7.66398 29.8243 7.81816 29.7142L14.4375 24.9859L21.0581 29.7142C21.2123 29.824 21.3937 29.8892 21.5825 29.9027C21.7713 29.9163 21.9602 29.8776 22.1284 29.7909C22.2967 29.7042 22.4379 29.5729 22.5365 29.4114C22.6351 29.2498 22.6873 29.0643 22.6875 28.875V23.8077L25.1818 25.5892C25.336 25.6993 25.5176 25.7648 25.7066 25.7786C25.8955 25.7923 26.0847 25.7537 26.2531 25.667C26.4216 25.5803 26.563 25.4488 26.6616 25.2871C26.7603 25.1253 26.8125 24.9395 26.8125 24.75V5.15625C26.8125 4.60924 26.5952 4.08464 26.2084 3.69784C25.8216 3.31105 25.297 3.09375 24.75 3.09375ZM20.625 26.8718L15.0356 22.8757C14.8607 22.7508 14.6512 22.6836 14.4362 22.6836C14.2213 22.6836 14.0117 22.7508 13.8368 22.8757L8.25 26.8705V9.28125H20.625V26.8718ZM24.75 22.7468L22.6875 21.2695V9.28125C22.6875 8.73424 22.4702 8.20964 22.0834 7.82284C21.6966 7.43605 21.172 7.21875 20.625 7.21875H12.375V5.15625H24.75V22.7468Z" fill="black"/>
</svg>
