<svg width="33" height="33" viewBox="0 0 33 33" fill="none" xmlns="http://www.w3.org/2000/svg">
<path d="M24.75 14.9531C24.75 15.2591 24.6593 15.5581 24.4893 15.8125C24.3193 16.0669 24.0777 16.2652 23.7951 16.3823C23.5124 16.4993 23.2014 16.53 22.9013 16.4703C22.6013 16.4106 22.3257 16.2633 22.1093 16.0469C21.893 15.8306 21.7457 15.555 21.686 15.2549C21.6263 14.9548 21.6569 14.6438 21.774 14.3612C21.8911 14.0785 22.0893 13.8369 22.3437 13.6669C22.5981 13.497 22.8972 13.4062 23.2031 13.4062C23.6134 13.4062 24.0068 13.5692 24.2969 13.8593C24.587 14.1494 24.75 14.5429 24.75 14.9531ZM19.5938 8.25H14.4375C14.164 8.25 13.9017 8.35865 13.7083 8.55205C13.5149 8.74544 13.4062 9.00775 13.4062 9.28125C13.4062 9.55475 13.5149 9.81706 13.7083 10.0105C13.9017 10.2039 14.164 10.3125 14.4375 10.3125H19.5938C19.8673 10.3125 20.1296 10.2039 20.323 10.0105C20.5164 9.81706 20.625 9.55475 20.625 9.28125C20.625 9.00775 20.5164 8.74544 20.323 8.55205C20.1296 8.35865 19.8673 8.25 19.5938 8.25ZM31.9688 14.4375V18.5625C31.9688 19.383 31.6428 20.1699 31.0626 20.7501C30.4824 21.3303 29.6955 21.6562 28.875 21.6562H28.5708L26.4812 27.506C26.3381 27.9067 26.0747 28.2533 25.7269 28.4984C25.3791 28.7435 24.9641 28.875 24.5386 28.875H22.8989C22.4734 28.875 22.0584 28.7435 21.7106 28.4984C21.3628 28.2533 21.0994 27.9067 20.9563 27.506L20.7088 26.8125H13.3225L13.075 27.506C12.9319 27.9067 12.6684 28.2533 12.3206 28.4984C11.9729 28.7435 11.5578 28.875 11.1323 28.875H9.49266C9.0672 28.875 8.65213 28.7435 8.30435 28.4984C7.95658 28.2533 7.6931 27.9067 7.55004 27.506L5.92969 22.9737C4.3882 21.229 3.42299 19.051 3.16594 16.7372C2.83313 16.912 2.55443 17.1744 2.35995 17.4961C2.16547 17.8178 2.06262 18.1866 2.0625 18.5625C2.0625 18.836 1.95385 19.0983 1.76045 19.2917C1.56706 19.4851 1.30475 19.5938 1.03125 19.5938C0.757746 19.5938 0.495443 19.4851 0.302046 19.2917C0.108649 19.0983 0 18.836 0 18.5625C0.00157572 17.6428 0.310435 16.7501 0.877509 16.0261C1.44458 15.302 2.23734 14.7883 3.12984 14.5664C3.36022 11.7244 4.65097 9.07306 6.74577 7.13873C8.84057 5.2044 11.5862 4.12862 14.4375 4.125H27.8438C28.1173 4.125 28.3796 4.23365 28.573 4.42705C28.7664 4.62044 28.875 4.88275 28.875 5.15625C28.875 5.42975 28.7664 5.69206 28.573 5.88545C28.3796 6.07885 28.1173 6.1875 27.8438 6.1875H25.0864C26.7979 7.38826 28.1438 9.03895 28.9755 10.957C29.031 11.0859 29.0851 11.2148 29.1367 11.3438C29.911 11.4095 30.6323 11.7642 31.157 12.3374C31.6817 12.9107 31.9715 13.6604 31.9688 14.4375ZM29.9062 14.4375C29.9062 14.164 29.7976 13.9017 29.6042 13.7083C29.4108 13.5149 29.1485 13.4062 28.875 13.4062H28.4032C28.1836 13.4065 27.9696 13.3366 27.7925 13.2067C27.6153 13.0769 27.4842 12.8939 27.4184 12.6844C26.8275 10.7989 25.6496 9.1516 24.0565 7.98284C22.4633 6.81408 20.5384 6.18503 18.5625 6.1875H14.4375C12.6363 6.18741 10.874 6.71142 9.36551 7.69563C7.857 8.67984 6.66747 10.0817 5.94197 11.7303C5.21646 13.3789 4.98634 15.203 5.27966 16.9802C5.57298 18.7573 6.37707 20.4107 7.59387 21.7388C7.68692 21.8399 7.75879 21.9587 7.80527 22.0881L9.49266 26.8125H11.1323L11.6248 25.4345C11.6963 25.2343 11.8279 25.061 12.0017 24.9385C12.1754 24.8159 12.3828 24.7501 12.5954 24.75H21.4358C21.6484 24.7501 21.8558 24.8159 22.0296 24.9385C22.2034 25.061 22.335 25.2343 22.4065 25.4345L22.8989 26.8125H24.5386L26.8731 20.2782C26.9446 20.078 27.0762 19.9048 27.25 19.7822C27.4237 19.6597 27.6311 19.5939 27.8438 19.5938H28.875C29.1485 19.5938 29.4108 19.4851 29.6042 19.2917C29.7976 19.0983 29.9062 18.836 29.9062 18.5625V14.4375Z" fill="black"/>
</svg>
