<svg width="33" height="33" viewBox="0 0 33 33" fill="none" xmlns="http://www.w3.org/2000/svg">
<path d="M31.4325 9.82082C31.1999 9.61799 30.9122 9.48886 30.606 9.44984C30.2999 9.41083 29.989 9.46368 29.7129 9.60168L23.2405 12.8243L17.8368 3.8486C17.6979 3.61828 17.5018 3.42775 17.2676 3.2955C17.0334 3.16325 16.769 3.09375 16.5 3.09375C16.2311 3.09375 15.9667 3.16325 15.7324 3.2955C15.4982 3.42775 15.3022 3.61828 15.1633 3.8486L9.75952 12.8282L3.28971 9.60555C3.01429 9.46877 2.70461 9.41638 2.39952 9.45496C2.09444 9.49353 1.80754 9.62136 1.57484 9.82239C1.34213 10.0234 1.17399 10.2887 1.09151 10.585C1.00902 10.8812 1.01587 11.1952 1.1112 11.4876L5.88073 26.1004C5.92868 26.2472 6.009 26.3814 6.11574 26.493C6.22249 26.6046 6.35294 26.6908 6.49746 26.7452C6.64198 26.7997 6.79689 26.821 6.95074 26.8075C7.10459 26.7941 7.25346 26.7463 7.38635 26.6676C7.41858 26.6482 10.7147 24.7495 16.5 24.7495C22.2853 24.7495 25.5815 26.6482 25.6111 26.6663C25.7441 26.7457 25.8932 26.7942 26.0474 26.8081C26.2017 26.822 26.3571 26.801 26.5021 26.7466C26.6471 26.6923 26.778 26.606 26.8851 26.4941C26.9921 26.3822 27.0727 26.2476 27.1206 26.1004L31.8901 11.4914C31.9882 11.199 31.9971 10.884 31.9156 10.5865C31.8341 10.289 31.6659 10.0225 31.4325 9.82082ZM25.5235 24.3408C23.9766 23.6847 20.8932 22.687 16.5 22.687C12.1069 22.687 9.02346 23.6847 7.47659 24.3408L3.44311 11.9877L9.25292 14.8843C9.60458 15.0577 10.0084 15.0931 10.3849 14.9836C10.7614 14.8741 11.0833 14.6276 11.2871 14.2926L16.5 5.6275L21.713 14.29C21.9167 14.6247 22.2384 14.871 22.6146 14.9805C22.9908 15.09 23.3943 15.0547 23.7458 14.8817L29.5569 11.9877L25.5235 24.3408Z" fill="black"/>
</svg>
