<svg width="33" height="33" viewBox="0 0 33 33" fill="none" xmlns="http://www.w3.org/2000/svg">
<path d="M30.9375 16.3228C30.7021 13.6233 29.7146 11.044 28.0873 8.87738C26.46 6.7108 24.2579 5.04377 21.731 4.06549C19.2041 3.08721 16.4535 2.83685 13.7915 3.34284C11.1295 3.84883 8.66265 5.0909 6.6709 6.92807C4.0119 9.37086 2.36912 12.7245 2.06895 16.3228C2.04447 16.6075 2.07946 16.8943 2.17168 17.1649C2.26391 17.4354 2.41136 17.6838 2.60469 17.8944C2.79801 18.1049 3.03299 18.2729 3.29471 18.3879C3.55642 18.5028 3.83917 18.562 4.125 18.5619H15.4688V25.7806C15.4688 26.8746 15.9033 27.9238 16.6769 28.6974C17.4505 29.471 18.4997 29.9056 19.5938 29.9056C20.6878 29.9056 21.737 29.471 22.5106 28.6974C23.2842 27.9238 23.7188 26.8746 23.7188 25.7806C23.7188 25.5071 23.6101 25.2448 23.4167 25.0514C23.2233 24.858 22.961 24.7494 22.6875 24.7494C22.414 24.7494 22.1517 24.858 21.9583 25.0514C21.7649 25.2448 21.6562 25.5071 21.6562 25.7806C21.6562 26.3276 21.439 26.8522 21.0522 27.239C20.6654 27.6258 20.1408 27.8431 19.5938 27.8431C19.0467 27.8431 18.5221 27.6258 18.1353 27.239C17.7485 26.8522 17.5313 26.3276 17.5313 25.7806V18.5619H28.875C29.1614 18.5629 29.4448 18.5043 29.7073 18.3898C29.9698 18.2753 30.2056 18.1074 30.3996 17.8967C30.5936 17.6861 30.7416 17.4374 30.8342 17.1664C30.9269 16.8954 30.962 16.6081 30.9375 16.3228ZM4.125 16.4994C4.32825 14.1857 5.17564 11.9752 6.57112 10.1186C7.96659 8.26198 9.85431 6.83345 12.0203 5.99498C14.1862 5.15651 16.5438 4.94164 18.8256 5.37473C21.1075 5.80782 23.2223 6.87154 24.9305 8.4453C27.2131 10.5371 28.6218 13.4136 28.875 16.4994H4.125Z" fill="black"/>
</svg>
