<svg width="33" height="33" viewBox="0 0 33 33" fill="none" xmlns="http://www.w3.org/2000/svg">
<path d="M28.875 27.8438C28.875 28.1173 28.7664 28.3796 28.573 28.573C28.3796 28.7664 28.1173 28.875 27.8438 28.875H5.15625C4.88275 28.875 4.62044 28.7664 4.42705 28.573C4.23365 28.3796 4.125 28.1173 4.125 27.8438C4.125 27.5702 4.23365 27.3079 4.42705 27.1145C4.62044 26.9211 4.88275 26.8125 5.15625 26.8125H27.8438C28.1173 26.8125 28.3796 26.9211 28.573 27.1145C28.7664 27.3079 28.875 27.5702 28.875 27.8438ZM17.5312 22.6875V10.3125C17.5312 9.76549 17.7485 9.24089 18.1353 8.85409C18.5221 8.4673 19.0467 8.25 19.5938 8.25H24.75C25.297 8.25 25.8216 8.4673 26.2084 8.85409C26.5952 9.24089 26.8125 9.76549 26.8125 10.3125V22.6875C26.8125 23.2345 26.5952 23.7591 26.2084 24.1459C25.8216 24.5327 25.297 24.75 24.75 24.75H19.5938C19.0467 24.75 18.5221 24.5327 18.1353 24.1459C17.7485 23.7591 17.5312 23.2345 17.5312 22.6875ZM19.5938 22.6875H24.75V10.3125H19.5938V22.6875ZM6.1875 22.6875V5.15625C6.1875 4.60924 6.4048 4.08464 6.79159 3.69784C7.17839 3.31105 7.70299 3.09375 8.25 3.09375H13.4062C13.9533 3.09375 14.4779 3.31105 14.8647 3.69784C15.2515 4.08464 15.4688 4.60924 15.4688 5.15625V22.6875C15.4688 23.2345 15.2515 23.7591 14.8647 24.1459C14.4779 24.5327 13.9533 24.75 13.4062 24.75H8.25C7.70299 24.75 7.17839 24.5327 6.79159 24.1459C6.4048 23.7591 6.1875 23.2345 6.1875 22.6875ZM8.25 22.6875H13.4062V5.15625H8.25V22.6875Z" fill="black"/>
</svg>
