<svg width="33" height="33" viewBox="0 0 33 33" fill="none" xmlns="http://www.w3.org/2000/svg">
<path d="M29.767 27.3277C27.8038 23.9336 24.7784 21.4999 21.2476 20.3462C22.9941 19.3065 24.351 17.7222 25.1099 15.8368C25.8689 13.9513 25.9879 11.8688 25.4487 9.90908C24.9096 7.94939 23.7421 6.22087 22.1254 4.98895C20.5088 3.75703 18.5325 3.08984 16.5 3.08984C14.4675 3.08984 12.4912 3.75703 10.8746 4.98895C9.25794 6.22087 8.09041 7.94939 7.55125 9.90908C7.01209 11.8688 7.13113 13.9513 7.89008 15.8368C8.64902 17.7222 10.0059 19.3065 11.7524 20.3462C8.22164 21.4986 5.19621 23.9323 3.23297 27.3277C3.16097 27.4451 3.11322 27.5757 3.09252 27.7119C3.07183 27.848 3.07861 27.9869 3.11247 28.1204C3.14633 28.2539 3.20658 28.3793 3.28968 28.4891C3.37277 28.5989 3.47701 28.691 3.59626 28.7599C3.7155 28.8287 3.84734 28.873 3.98398 28.8901C4.12063 28.9072 4.25932 28.8968 4.39186 28.8594C4.52441 28.8221 4.64813 28.7585 4.75572 28.6726C4.86331 28.5866 4.9526 28.48 5.01832 28.359C7.44691 24.1618 11.7395 21.6559 16.5 21.6559C21.2605 21.6559 25.5531 24.1618 27.9817 28.359C28.0474 28.48 28.1367 28.5866 28.2443 28.6726C28.3519 28.7585 28.4756 28.8221 28.6081 28.8594C28.7407 28.8968 28.8794 28.9072 29.016 28.8901C29.1527 28.873 29.2845 28.8287 29.4037 28.7599C29.523 28.691 29.6272 28.5989 29.7103 28.4891C29.7934 28.3793 29.8537 28.2539 29.8875 28.1204C29.9214 27.9869 29.9282 27.848 29.9075 27.7119C29.8868 27.5757 29.839 27.4451 29.767 27.3277ZM9.28125 12.3746C9.28125 10.9469 9.70462 9.5512 10.4978 8.36408C11.291 7.17696 12.4184 6.25172 13.7375 5.70535C15.0566 5.15897 16.508 5.01602 17.9083 5.29456C19.3086 5.57309 20.5949 6.26061 21.6044 7.27017C22.614 8.27973 23.3015 9.56599 23.58 10.9663C23.8586 12.3666 23.7156 13.818 23.1693 15.1371C22.6229 16.4562 21.6976 17.5836 20.5105 18.3768C19.3234 19.17 17.9277 19.5934 16.5 19.5934C14.5861 19.5913 12.7512 18.8301 11.3978 17.4768C10.0445 16.1234 9.2833 14.2885 9.28125 12.3746Z" fill="black"/>
</svg>
