<svg viewBox="0 0 22 22" fill="none" xmlns="http://www.w3.org/2000/svg">
<path d="M11 2.0625C10.3698 2.0625 9.8112 2.25586 9.32422 2.64258C8.83724 3.0293 8.51497 3.52344 8.35742 4.125H2.0625V17.875H19.9375V4.125H13.6426C13.485 3.52344 13.1628 3.0293 12.6758 2.64258C12.1888 2.25586 11.6302 2.0625 11 2.0625ZM11 3.4375C11.2721 3.4375 11.512 3.49837 11.7197 3.62012C11.9274 3.74186 12.0885 3.91016 12.2031 4.125H9.79688C9.91146 3.91016 10.0726 3.74186 10.2803 3.62012C10.488 3.49837 10.7279 3.4375 11 3.4375ZM3.4375 5.5H18.5625V11.6875H3.4375V5.5ZM11 9.625C10.8138 9.625 10.6527 9.69303 10.5166 9.8291C10.3805 9.96517 10.3125 10.1263 10.3125 10.3125C10.3125 10.4987 10.3805 10.6598 10.5166 10.7959C10.6527 10.932 10.8138 11 11 11C11.1862 11 11.3473 10.932 11.4834 10.7959C11.6195 10.6598 11.6875 10.4987 11.6875 10.3125C11.6875 10.1263 11.6195 9.96517 11.4834 9.8291C11.3473 9.69303 11.1862 9.625 11 9.625ZM3.4375 13.0625H18.5625V16.5H3.4375V13.0625Z" fill="currentColor"/>
</svg>
