<svg viewBox="0 0 32 33" fill="none" xmlns="http://www.w3.org/2000/svg">
<path d="M28 25.1667C28 27.008 26.508 28.5 24.6667 28.5H7.33333C5.49267 28.5 4 27.008 4 25.1667V7.83333C4 5.992 5.49267 4.5 7.33333 4.5H24.6667C26.508 4.5 28 5.992 28 7.83333V25.1667Z" fill="currentColor"/>
<path d="M8 13.1667H11.3333V24.5H8V13.1667ZM9.65667 11.8333H9.638C8.64333 11.8333 8 11.092 8 10.166C8 9.22 8.66333 8.5 9.676 8.5C10.69 8.5 11.3147 9.22 11.3333 10.166C11.3333 11.0913 10.69 11.8333 9.65667 11.8333ZM24 24.5H20.6667V18.434C20.6667 16.9687 19.85 15.9687 18.5387 15.9687C17.538 15.9687 16.9967 16.6433 16.734 17.2953C16.638 17.5287 16.6667 18.174 16.6667 18.5V24.5H13.3333V13.1667H16.6667V14.9107C17.1473 14.1667 17.9 13.1667 19.8253 13.1667C22.2107 13.1667 23.9993 14.6667 23.9993 18.016L24 24.5Z" fill="white"/>
</svg>
