<svg viewBox="0 0 19 18" fill="none" xmlns="http://www.w3.org/2000/svg">
<path d="M9.8 17.0684C9.45714 17.0684 9.15714 16.9719 8.9 16.7791C7.52857 15.7505 6.37679 14.5237 5.44464 13.0987C4.5125 11.6737 3.85357 10.1255 3.46786 8.45407C3.46786 8.43264 3.46786 8.41122 3.46786 8.38979C3.38214 7.96122 3.33929 7.52193 3.33929 7.07193C3.33929 5.29336 3.97143 3.77193 5.23572 2.50764C6.5 1.24336 8.02143 0.611216 9.8 0.611216C10.9786 0.611216 12.0607 0.900501 13.0464 1.47907C14.0321 2.05764 14.8143 2.84514 15.3929 3.84157C15.9714 4.838 16.2607 5.91479 16.2607 7.07193C16.2607 7.54336 16.2179 8.01479 16.1321 8.48622C16.1107 8.50764 16.1 8.52907 16.1 8.5505C15.8643 9.62193 15.5 10.6559 15.0071 11.6523C14.5143 12.6487 13.9143 13.5701 13.2071 14.4166C12.5 15.263 11.6964 16.0184 10.7964 16.6826L10.6036 16.8434C10.5821 16.8434 10.5714 16.8541 10.5714 16.8755C10.3357 17.0041 10.0786 17.0684 9.8 17.0684ZM4.43214 8.3255C4.775 9.84693 5.38036 11.2719 6.24822 12.6005C7.11607 13.9291 8.19286 15.0541 9.47857 15.9755C9.65 16.1255 9.84286 16.1469 10.0571 16.0398L10.2179 15.9112C12.7893 14.0041 14.4286 11.4969 15.1357 8.38979C15.1357 8.36836 15.1464 8.34693 15.1679 8.3255C15.2536 7.91836 15.2964 7.5005 15.2964 7.07193C15.2964 6.32193 15.1518 5.60943 14.8625 4.93443C14.5732 4.25943 14.1821 3.6755 13.6893 3.18264C13.1964 2.68979 12.6125 2.29872 11.9375 2.00943C11.2625 1.72014 10.55 1.5755 9.8 1.5755C8.27857 1.5755 6.98214 2.11122 5.91072 3.18264C4.83929 4.25407 4.30357 5.5505 4.30357 7.07193C4.30357 7.47907 4.34643 7.8755 4.43214 8.26122C4.43214 8.28264 4.43214 8.30407 4.43214 8.3255ZM9.8 9.83622C9.02857 9.83622 8.375 9.56836 7.83929 9.03264C7.30357 8.49693 7.03572 7.84336 7.03572 7.07193C7.03572 6.57907 7.15893 6.11836 7.40536 5.68979C7.65179 5.26122 7.98929 4.92372 8.41786 4.67729C8.84643 4.43086 9.30714 4.30764 9.8 4.30764C10.2929 4.30764 10.7536 4.43086 11.1821 4.67729C11.6107 4.92372 11.9482 5.26122 12.1946 5.68979C12.4411 6.11836 12.5643 6.58443 12.5643 7.088C12.5643 7.59157 12.4411 8.05229 12.1946 8.47014C11.9482 8.888 11.6107 9.22014 11.1821 9.46657C10.7536 9.713 10.2929 9.83622 9.8 9.83622ZM11.0696 5.80229C11.0696 5.80229 10.9813 5.71389 10.8045 5.53711C10.6277 5.36032 10.2929 5.27193 9.8 5.27193C9.30714 5.27193 8.88393 5.44872 8.53036 5.80229C8.17679 6.15586 8 6.57907 8 7.07193C8 7.56479 8.17679 7.988 8.53036 8.34157C8.88393 8.69514 9.30714 8.87193 9.8 8.87193C10.2929 8.87193 10.7161 8.69514 11.0696 8.34157C11.4232 7.988 11.6 7.56479 11.6 7.07193C11.6 6.57907 11.4232 6.15586 11.0696 5.80229Z" fill="currentColor"/>
</svg>
