<svg viewBox="0 0 22 22" fill="none" xmlns="http://www.w3.org/2000/svg">
<path d="M11 2.0625C10.1406 2.0625 9.34212 2.28092 8.60449 2.71777C7.86686 3.15462 7.27962 3.74186 6.84277 4.47949C6.40592 5.21712 6.1875 6.01562 6.1875 6.875V8.9375H4.125V19.9375H17.875V8.9375H15.8125V6.875C15.8125 6.01562 15.5941 5.21712 15.1572 4.47949C14.7204 3.74186 14.1331 3.15462 13.3955 2.71777C12.6579 2.28092 11.8594 2.0625 11 2.0625ZM11 3.4375C11.6159 3.4375 12.1888 3.59147 12.7188 3.89941C13.2487 4.20736 13.6676 4.6263 13.9756 5.15625C14.2835 5.6862 14.4375 6.25911 14.4375 6.875V8.9375H7.5625V6.875C7.5625 6.25911 7.71647 5.6862 8.02441 5.15625C8.33236 4.6263 8.7513 4.20736 9.28125 3.89941C9.8112 3.59147 10.3841 3.4375 11 3.4375ZM5.5 10.3125H16.5V18.5625H5.5V10.3125Z" fill="currentColor"/>
</svg>
