<svg viewBox="0 0 22 22" fill="none" xmlns="http://www.w3.org/2000/svg">
<path d="M11 2.75C9.51042 2.75 8.12109 3.12956 6.83203 3.88867C5.58594 4.60482 4.60482 5.58594 3.88867 6.83203C3.12956 8.12109 2.75 9.51042 2.75 11C2.75 12.4896 3.12956 13.8789 3.88867 15.168C4.60482 16.4141 5.58594 17.4023 6.83203 18.1328C8.12109 18.8776 9.51042 19.25 11 19.25C12.375 19.25 13.6641 18.9277 14.8672 18.2832C16.0273 17.6673 16.987 16.8223 17.7461 15.748L16.6289 14.9531C15.9987 15.8555 15.1966 16.5645 14.2227 17.0801C13.2201 17.61 12.1458 17.875 11 17.875C9.75391 17.875 8.59375 17.5599 7.51953 16.9297C6.48828 16.3281 5.67188 15.5117 5.07031 14.4805C4.4401 13.4062 4.125 12.2461 4.125 11C4.125 9.75391 4.4401 8.59375 5.07031 7.51953C5.67188 6.48828 6.48828 5.67188 7.51953 5.07031C8.59375 4.4401 9.75391 4.125 11 4.125C12.1458 4.125 13.2201 4.38997 14.2227 4.91992C15.1966 5.43555 15.9987 6.14453 16.6289 7.04688L17.7461 6.25195C16.987 5.17773 16.0273 4.33268 14.8672 3.7168C13.6641 3.07227 12.375 2.75 11 2.75ZM16.0488 7.75586L15.0605 8.74414L16.6289 10.3125H8.25V11.6875H16.6289L15.0605 13.2559L16.0488 14.2441L18.7988 11.4941L19.2715 11L18.7988 10.5059L16.0488 7.75586Z" fill="currentColor"/>
</svg>
