<svg viewBox="0 0 24 25" fill="none" xmlns="http://www.w3.org/2000/svg">
<path d="M4 6.5V19.5C4 21.1569 5.34315 22.5 7 22.5H17C18.6569 22.5 20 21.1569 20 19.5V9.5C20 7.84315 18.6569 6.5 17 6.5H4ZM4 6.5V5.5" stroke="currentColor" stroke-width="1.5"/>
<path d="M18 6.50002V7.25002H18.75V6.50002H18ZM15.7172 2.82614L15.6111 2.08368L15.7172 2.82614ZM4.91959 4.36865L4.81353 3.62619H4.81353L4.91959 4.36865ZM5.07107 7.25002H18V5.75002H5.07107V7.25002ZM18.75 6.50002V4.80604H17.25V6.50002H18.75ZM15.6111 2.08368L4.81353 3.62619L5.02566 5.11111L15.8232 3.5686L15.6111 2.08368ZM4.81353 3.62619C3.91638 3.75435 3.25 4.5227 3.25 5.42895H4.75C4.75 5.26917 4.86749 5.13371 5.02566 5.11111L4.81353 3.62619ZM18.75 4.80604C18.75 3.13253 17.2678 1.84701 15.6111 2.08368L15.8232 3.5686C16.5763 3.46103 17.25 4.04535 17.25 4.80604H18.75ZM5.07107 5.75002C4.89375 5.75002 4.75 5.60627 4.75 5.42895H3.25C3.25 6.4347 4.06532 7.25002 5.07107 7.25002V5.75002Z" fill="currentColor"/>
<path d="M8 12.5H16" stroke="currentColor" stroke-width="1.5" stroke-linecap="round"/>
<path d="M8 16H13.5" stroke="currentColor" stroke-width="1.5" stroke-linecap="round"/>
</svg>
