<svg width="15" height="15" viewBox="0 0 15 15" fill="none" xmlns="http://www.w3.org/2000/svg">
<path fill-rule="evenodd" clip-rule="evenodd" d="M0 7.33333C0 3.28333 3.28333 0 7.33333 0C11.3833 0 14.6667 3.28333 14.6667 7.33333C14.6667 11.3833 11.3833 14.6667 7.33333 14.6667C3.28333 14.6667 0 11.3833 0 7.33333ZM8 3.33333C8 3.15652 7.92973 2.98695 7.80473 2.86193C7.67973 2.73691 7.51013 2.66667 7.33333 2.66667C7.15653 2.66667 6.98693 2.73691 6.86193 2.86193C6.73693 2.98695 6.66667 3.15652 6.66667 3.33333V4C6.13627 4 5.62753 4.21071 5.25245 4.58579C4.87738 4.96086 4.66667 5.46957 4.66667 6C4.66667 6.5304 4.87738 7.03913 5.25245 7.4142C5.62753 7.78927 6.13627 8 6.66667 8H8C8.1768 8 8.3464 8.07027 8.4714 8.19527C8.5964 8.32027 8.66667 8.48987 8.66667 8.66667C8.66667 8.84347 8.5964 9.01307 8.4714 9.13807C8.3464 9.26307 8.1768 9.33333 8 9.33333H5.33333C5.15652 9.33333 4.98695 9.4036 4.86193 9.5286C4.73691 9.6536 4.66667 9.8232 4.66667 10C4.66667 10.1768 4.73691 10.3464 4.86193 10.4714C4.98695 10.5964 5.15652 10.6667 5.33333 10.6667H6.66667V11.3333C6.66667 11.5101 6.73693 11.6797 6.86193 11.8047C6.98693 11.9297 7.15653 12 7.33333 12C7.51013 12 7.67973 11.9297 7.80473 11.8047C7.92973 11.6797 8 11.5101 8 11.3333V10.6667C8.26267 10.6667 8.52273 10.6149 8.7654 10.5144C9.008 10.4139 9.22847 10.2666 9.4142 10.0809C9.59993 9.89513 9.74727 9.67467 9.84773 9.43207C9.94827 9.1894 10 8.92933 10 8.66667C10 8.404 9.94827 8.14393 9.84773 7.90127C9.74727 7.65867 9.59993 7.4382 9.4142 7.25247C9.22847 7.06673 9.008 6.9194 8.7654 6.81893C8.52273 6.7184 8.26267 6.66667 8 6.66667H6.66667C6.48987 6.66667 6.32027 6.5964 6.19527 6.4714C6.07027 6.3464 6 6.1768 6 6C6 5.82319 6.07027 5.65362 6.19527 5.52859C6.32027 5.40357 6.48987 5.33333 6.66667 5.33333H9.33333C9.51013 5.33333 9.67973 5.26309 9.80473 5.13807C9.92973 5.01305 10 4.84348 10 4.66667C10 4.48985 9.92973 4.32029 9.80473 4.19526C9.67973 4.07024 9.51013 4 9.33333 4H8V3.33333Z" fill="black"/>
</svg>
