<svg viewBox="0 0 87 86" fill="none" xmlns="http://www.w3.org/2000/svg">
<g clip-path="url(#clip0_41_524)">
<g clip-path="url(#clip1_41_524)">
<mask id="mask0_41_524" style="mask-type:luminance" maskUnits="userSpaceOnUse" x="0" y="0" width="87" height="86">
<path d="M86.0187 0.00585938H0V85.6604H86.0187V0.00585938Z" fill="white"/>
</mask>
<g mask="url(#mask0_41_524)">
<path d="M43.0042 84.9017C31.5121 84.9017 20.7282 84.1126 12.6149 82.6862C8.72016 81.9983 5.66505 81.2092 3.56086 80.3291C2.54923 79.9042 1.79051 79.4794 1.29481 79.0646C0.940744 78.7611 0.748535 78.4778 0.748535 78.2553C0.748535 78.0327 0.940744 77.7495 1.29481 77.446C1.79051 77.0211 2.54923 76.5962 3.55074 76.1814C5.66505 75.3013 8.71005 74.5123 12.6048 73.8244C20.7181 72.398 31.502 71.6089 42.9941 71.6089C54.4862 71.6089 65.2702 72.398 73.3834 73.8244C77.2782 74.5123 80.3333 75.3013 82.4375 76.1814C83.4491 76.5962 84.2078 77.0312 84.6934 77.446C85.0475 77.7495 85.2397 78.0327 85.2397 78.2553C85.2397 78.4778 85.0475 78.7611 84.6934 79.0646C84.2078 79.4895 83.439 79.9144 82.4375 80.3291C80.3232 81.2092 77.2782 81.9983 73.3834 82.6862C65.2803 84.1126 54.4862 84.9017 42.9941 84.9017H43.0042Z" fill="white"/>
<path d="M43.0044 72.3675C54.4459 72.3675 65.1894 73.1465 73.2622 74.5628C77.0558 75.2304 80.1312 76.0296 82.1645 76.8693C83.3279 77.3549 83.9248 77.7595 84.2181 78.0124C84.3294 78.1136 84.4002 78.1844 84.4508 78.2451C84.4104 78.2957 84.3395 78.3766 84.2181 78.4778C83.9248 78.7307 83.3279 79.1353 82.1645 79.6209C80.1312 80.4606 77.0558 81.2598 73.2622 81.9274C65.1995 83.3437 54.456 84.1227 43.0044 84.1227C31.5528 84.1227 20.8194 83.3437 12.7466 81.9274C8.95301 81.2598 5.87766 80.4606 3.84429 79.6209C2.68092 79.1353 2.08406 78.7307 1.79069 78.4778C1.67941 78.3766 1.60859 78.3058 1.55801 78.2451C1.59848 78.1945 1.66929 78.1136 1.79069 78.0124C2.08406 77.7595 2.68092 77.3549 3.84429 76.8693C5.87766 76.0195 8.95301 75.2304 12.7466 74.5628C20.8093 73.1465 31.5528 72.3675 43.0044 72.3675ZM43.0044 70.8501C31.0773 70.8501 20.2934 71.6999 12.4836 73.0757C8.57871 73.7636 5.43255 74.583 3.26766 75.4834C2.18522 75.9386 1.35569 76.4039 0.799292 76.8794C0.242897 77.3549 -0.0100098 77.8202 -0.0100098 78.2653C-0.0100098 78.7104 0.242897 79.1657 0.799292 79.6513C1.35569 80.1267 2.17511 80.5921 3.26766 81.0473C5.43255 81.9477 8.57871 82.7671 12.4836 83.455C20.2833 84.8308 31.0773 85.6806 43.0044 85.6806C54.9315 85.6806 65.7155 84.8308 73.5252 83.455C77.4301 82.7671 80.5763 81.9477 82.7412 81.0473C83.8236 80.5921 84.6531 80.1267 85.2095 79.6513C85.7659 79.1758 86.0188 78.7104 86.0188 78.2653C86.0188 77.8202 85.7659 77.365 85.2095 76.8794C84.6531 76.4039 83.8337 75.9386 82.7412 75.4834C80.5763 74.583 77.4301 73.7636 73.5252 73.0757C65.7256 71.6999 54.9315 70.8501 43.0044 70.8501Z" fill="#F36103"/>
<path d="M43.0042 79.9346C42.6704 79.9346 42.3365 79.8132 42.0735 79.6109C42.0027 79.5502 41.9622 79.5097 41.9218 79.4693C36.8232 73.3287 32.8576 68.2807 29.9138 63.4147C26.4742 57.7294 24.7949 52.8028 24.7949 48.3516C24.7949 43.6172 26.7372 38.9738 30.1262 35.6253C33.5657 32.2262 38.1282 30.3547 42.9941 30.3547C47.86 30.3547 52.4225 32.2262 55.862 35.6253C59.3016 39.0244 61.1933 43.5464 61.1933 48.3516C61.1933 52.8736 59.5646 57.6586 56.0846 63.4147C53.1306 68.2908 49.1752 73.3287 44.1271 79.4086C43.8439 79.7424 43.4392 79.9346 42.9941 79.9346H43.0042ZM43.0042 39.4999C39.5647 39.4999 36.7625 42.2717 36.7625 45.6708C36.7625 49.0699 39.5647 51.8417 43.0042 51.8417C46.4438 51.8417 49.2561 49.08 49.2561 45.6708C49.2561 42.2616 46.4539 39.4999 43.0042 39.4999Z" fill="white"/>
<path d="M43.0043 31.1134C47.8196 31.1134 52.1798 33.0456 55.336 36.1614C58.4923 39.2772 60.4448 43.5868 60.4448 48.3414C60.4448 53.0961 58.5429 57.9013 55.4473 63.0201C52.4023 68.058 48.2041 73.3286 43.5607 78.9229C43.4191 79.0848 43.2167 79.1758 43.0144 79.1758C42.8526 79.1758 42.7008 79.1252 42.5693 79.014C42.5389 78.9937 42.5187 78.9634 42.4985 78.9432L42.4681 78.9027C37.8349 73.3185 33.6366 68.0479 30.5916 63.01C27.496 57.8912 25.5841 53.0354 25.5841 48.3313C25.5841 43.6272 27.5365 39.2671 30.6928 36.1513C33.8491 33.0355 38.2092 31.1033 43.0245 31.1033M43.0043 52.6004C46.8687 52.6004 50.0149 49.5048 50.0149 45.6707C50.0149 41.8366 46.8788 38.7411 43.0043 38.7411C39.1298 38.7411 36.0038 41.8468 36.0038 45.6707C36.0038 49.4947 39.1399 52.6004 43.0043 52.6004ZM43.0043 29.5959C37.9462 29.5959 33.1814 31.5484 29.6103 35.079C26.0798 38.5691 24.0464 43.4047 24.0464 48.3414C24.0464 52.9443 25.756 58.0025 29.2664 63.7991C32.2305 68.7055 36.2163 73.7737 41.2744 79.8739C41.2946 79.8941 41.3351 79.9548 41.3553 79.975C41.416 80.0458 41.4869 80.1166 41.5678 80.1773C41.9825 80.5112 42.4884 80.6933 42.9942 80.6933C43.6619 80.6933 44.2789 80.3999 44.7038 79.8941C49.7721 73.794 53.7478 68.7257 56.722 63.8092C60.2829 57.9215 61.942 53.0151 61.942 48.3515C61.942 43.344 59.9693 38.6298 56.3881 35.0891C52.807 31.5484 48.0523 29.6061 42.9841 29.6061L43.0043 29.5959ZM43.0043 51.0829C39.9795 51.0829 37.5213 48.655 37.5213 45.6707C37.5213 42.6864 39.9795 40.2585 43.0043 40.2585C46.0291 40.2585 48.4974 42.6864 48.4974 45.6707C48.4974 48.655 46.0392 51.0829 43.0043 51.0829Z" fill="#F36103"/>
<path d="M6.08998 35.1499C5.918 35.1499 5.75614 35.0993 5.62463 34.9881C2.85277 32.8131 1.25439 29.5556 1.25439 26.0351C1.25439 19.7732 6.353 14.6746 12.615 14.6746C18.877 14.6746 23.9756 19.7732 23.9756 26.0351C23.9756 29.5455 22.3873 32.813 19.6154 34.9779C19.4839 35.0791 19.312 35.1398 19.1501 35.1398C19.0692 35.1398 18.9882 35.1297 18.9174 35.0993C18.6746 35.0184 18.4925 34.8262 18.4217 34.5834C18.1486 33.6021 17.6225 32.7018 16.9144 31.9734C16.8942 31.9532 16.8335 31.8925 16.8132 31.8621C15.7409 30.7999 14.2336 30.1626 12.6352 30.1626C11.0368 30.1626 9.52951 30.7898 8.39649 31.9228C7.658 32.6512 7.12184 33.5718 6.8487 34.5733C6.77788 34.8161 6.59579 35.0083 6.353 35.0892C6.27207 35.1094 6.19114 35.1297 6.12033 35.1297L6.08998 35.1499Z" fill="white"/>
<path d="M12.6048 15.4432C18.4621 15.4432 23.2067 20.1878 23.2067 26.0451C23.2067 29.434 21.6083 32.4487 19.1298 34.391C18.8162 33.2681 18.2193 32.2666 17.4303 31.4573C17.4202 31.4472 17.3999 31.4269 17.3898 31.4168C16.1657 30.1928 14.4662 29.4239 12.6048 29.4239C10.7434 29.4239 9.05398 30.1826 7.82991 31.4067C7.01049 32.2261 6.40351 33.2479 6.07979 34.391C3.6013 32.4487 2.00293 29.434 2.00293 26.0451C2.00293 20.1878 6.74747 15.4432 12.6048 15.4432ZM12.6048 13.9258C5.92805 13.9258 0.495605 19.3683 0.495605 26.0451C0.495605 29.7982 2.19514 33.2782 5.15921 35.5949C5.43235 35.8073 5.75607 35.9186 6.08991 35.9186C6.25177 35.9186 6.41363 35.8983 6.56537 35.8478C7.05095 35.6859 7.41514 35.3015 7.55677 34.8159C7.79956 33.9358 8.26491 33.1366 8.91235 32.4993C9.91386 31.5079 11.229 30.9616 12.6149 30.9616C14.0008 30.9616 15.3058 31.4978 16.2972 32.479C16.3175 32.4993 16.3377 32.5296 16.3681 32.5498C16.9852 33.1771 17.4404 33.9661 17.6832 34.826C17.8147 35.3116 18.189 35.7061 18.6746 35.8579C18.8263 35.9085 18.9882 35.9287 19.15 35.9287C19.4839 35.9287 19.8177 35.8174 20.0807 35.605C23.0347 33.2883 24.7342 29.8083 24.7342 26.0653C24.7342 19.3886 19.3018 13.946 12.6149 13.946L12.6048 13.9258Z" fill="#F36103"/>
<path d="M12.6048 37.4059C10.0454 37.4059 7.62758 36.5764 5.61444 34.9982C5.37165 34.806 5.27048 34.4924 5.35141 34.199C5.70548 32.9446 6.37316 31.8015 7.29374 30.8809C8.72013 29.4545 10.6018 28.6755 12.6048 28.6755C14.6078 28.6755 16.4996 29.4646 17.9259 30.891C18.8566 31.8419 19.5142 32.9648 19.8582 34.199C19.9391 34.4924 19.8379 34.8161 19.5951 34.9982C17.582 36.5764 15.1642 37.4059 12.6048 37.4059Z" fill="white"/>
<path d="M12.615 29.4242C14.4764 29.4242 16.1759 30.193 17.4 31.4171C17.4 31.4272 17.4202 31.4474 17.4405 31.4576C18.2396 32.2669 18.8264 33.2684 19.14 34.3913C17.3393 35.7974 15.0732 36.6371 12.615 36.6371C10.1567 36.6371 7.89069 35.7974 6.08999 34.3913C6.41371 33.2481 7.02069 32.2264 7.84011 31.407C9.06418 30.1829 10.7536 29.4242 12.615 29.4242ZM12.615 27.9067C10.4096 27.9067 8.3358 28.7666 6.76778 30.3346C5.75615 31.3463 5.01766 32.6108 4.63325 33.9866C4.47138 34.5835 4.67371 35.2107 5.15929 35.585C7.30394 37.2643 9.88359 38.1545 12.615 38.1545C15.3464 38.1545 17.926 37.2643 20.0808 35.585C20.5664 35.2107 20.7687 34.5734 20.6068 33.9765C20.2325 32.631 19.5143 31.3969 18.5431 30.4055C18.5229 30.3852 18.5027 30.365 18.4824 30.3448C16.9144 28.7767 14.8305 27.9067 12.6251 27.9067H12.615Z" fill="#F36103"/>
<path d="M12.6048 28.4627C14.8229 28.4627 16.621 26.6647 16.621 24.4466C16.621 22.2286 14.8229 20.4304 12.6048 20.4304C10.3867 20.4304 8.58862 22.2286 8.58862 24.4466C8.58862 26.6647 10.3867 28.4627 12.6048 28.4627Z" fill="white" stroke="#F36103" stroke-width="1.51744" stroke-linejoin="round"/>
<path d="M35.9127 21.2298C35.7408 21.2298 35.5789 21.1792 35.4474 21.0679C32.6755 18.8929 31.0771 15.6355 31.0771 12.115C31.0771 5.853 36.1758 0.754395 42.4377 0.754395C48.6997 0.754395 53.7983 5.853 53.7983 12.115C53.7983 15.6253 52.2101 18.8929 49.4382 21.0578C49.3067 21.1589 49.1347 21.2196 48.9728 21.2196C48.8919 21.2196 48.811 21.2095 48.7402 21.1792C48.4974 21.0982 48.3153 20.906 48.2445 20.6632C47.9713 19.682 47.4453 18.7816 46.7372 18.0532C46.7169 18.033 46.6562 17.9723 46.636 17.942C45.5637 16.8798 44.0563 16.2424 42.4478 16.2424C40.8394 16.2424 39.3421 16.8696 38.2091 18.0027C37.4706 18.731 36.9345 19.6516 36.6613 20.6531C36.5905 20.8959 36.4084 21.0881 36.1656 21.1691C36.0847 21.1893 36.0038 21.2095 35.933 21.2095L35.9127 21.2298Z" fill="white"/>
<path d="M42.4277 1.5233C48.285 1.5233 53.0295 6.26784 53.0295 12.1252C53.0295 15.5141 51.4311 18.5288 48.9527 20.4711C48.639 19.3482 48.0422 18.3467 47.2531 17.5374C47.243 17.5273 47.2228 17.507 47.2127 17.4969C45.9886 16.2728 44.289 15.504 42.4277 15.504C40.5663 15.504 38.8768 16.2627 37.6528 17.4868C36.8334 18.3062 36.2264 19.328 35.9027 20.4711C33.4242 18.5288 31.8258 15.5141 31.8258 12.1252C31.8258 6.26784 36.5703 1.5233 42.4277 1.5233ZM42.4277 0.00585938C35.7509 0.00585938 30.3083 5.4383 30.3083 12.1252C30.3083 15.8783 32.0079 19.3583 34.972 21.6749C35.2451 21.8874 35.5688 21.9986 35.9027 21.9986C36.0645 21.9986 36.2264 21.9784 36.3781 21.9278C36.8637 21.766 37.2279 21.3816 37.3695 20.896C37.6123 20.0159 38.0777 19.2167 38.7251 18.5793C39.7266 17.588 41.0417 17.0417 42.4277 17.0417C43.8136 17.0417 45.1186 17.5778 46.11 18.5591C46.1302 18.5793 46.1504 18.6097 46.1808 18.6299C46.7979 19.2571 47.2531 20.0462 47.4959 20.9061C47.6274 21.3917 48.0017 21.7862 48.4873 21.938C48.639 21.9885 48.8009 22.0088 48.9628 22.0088C49.2966 22.0088 49.6304 21.8975 49.8935 21.685C52.8474 19.3684 54.547 15.8884 54.547 12.1454C54.547 5.46865 49.1145 0.0260919 42.4277 0.0260919V0.00585938Z" fill="#F36103"/>
<path d="M42.4278 23.4757C39.8684 23.4757 37.4506 22.6462 35.4374 21.068C35.1946 20.8758 35.0935 20.5622 35.1744 20.2688C35.5285 19.0144 36.1962 17.8713 37.1167 16.9507C38.5431 15.5243 40.4349 14.7454 42.4278 14.7454C44.4207 14.7454 46.3226 15.5344 47.7489 16.9608C48.6796 17.9118 49.3372 19.0448 49.6812 20.2688C49.7621 20.5622 49.6609 20.8859 49.4181 21.068C47.405 22.6462 44.9872 23.4757 42.4278 23.4757Z" fill="white"/>
<path d="M42.4277 15.504C44.2891 15.504 45.9887 16.2729 47.2127 17.4969C47.2127 17.507 47.233 17.5273 47.2532 17.5374C48.0524 18.3467 48.6391 19.3482 48.9527 20.4711C47.152 21.8773 44.886 22.7169 42.4277 22.7169C39.9695 22.7169 37.7034 21.8773 35.9027 20.4711C36.2265 19.328 36.8334 18.3062 37.6529 17.4868C38.8769 16.2627 40.5663 15.504 42.4277 15.504ZM42.4277 13.9866C40.2224 13.9866 38.1485 14.8465 36.5805 16.4145C35.5689 17.4261 34.8304 18.6906 34.446 20.0665C34.2841 20.6633 34.4865 21.2905 34.972 21.6648C37.1167 23.3441 39.6963 24.2344 42.4277 24.2344C45.1591 24.2344 47.7388 23.3441 49.8935 21.6648C50.3791 21.2905 50.5815 20.6532 50.4196 20.0563C50.0453 18.7109 49.327 17.4767 48.3559 16.4853C48.3356 16.4651 48.3154 16.4448 48.2952 16.4246C46.7272 14.8566 44.6432 13.9866 42.4379 13.9866H42.4277Z" fill="#F36103"/>
<path d="M42.4278 14.5328C44.6459 14.5328 46.4439 12.7347 46.4439 10.5166C46.4439 8.29859 44.6459 6.50049 42.4278 6.50049C40.2098 6.50049 38.4116 8.29859 38.4116 10.5166C38.4116 12.7347 40.2098 14.5328 42.4278 14.5328Z" fill="white" stroke="#F36103" stroke-width="1.51744" stroke-linejoin="round"/>
<path d="M66.9699 35.1499C66.7979 35.1499 66.636 35.0993 66.5045 34.9881C63.7326 32.8131 62.1343 29.5556 62.1343 26.0351C62.1343 19.7732 67.2329 14.6746 73.4949 14.6746C79.7568 14.6746 84.8554 19.7732 84.8554 26.0351C84.8554 29.5455 83.2672 32.813 80.4953 34.9779C80.3638 35.0791 80.1918 35.1398 80.03 35.1398C79.949 35.1398 79.8681 35.1297 79.7973 35.0993C79.5545 35.0184 79.3724 34.8262 79.3016 34.5834C79.0285 33.6021 78.5024 32.7018 77.7943 31.9734C77.774 31.9532 77.7134 31.8925 77.6931 31.8621C76.6208 30.7999 75.1135 30.1626 73.505 30.1626C71.8965 30.1626 70.3993 30.7898 69.2663 31.9228C68.5278 32.6512 67.9916 33.5718 67.7185 34.5733C67.6477 34.8161 67.4656 35.0083 67.2228 35.0892C67.1418 35.1094 67.0609 35.1297 66.9901 35.1297L66.9699 35.1499Z" fill="white"/>
<path d="M73.4845 15.4432C79.3419 15.4432 84.0864 20.1878 84.0864 26.0451C84.0864 29.434 82.488 32.4487 80.0095 34.391C79.6959 33.2681 79.0991 32.2666 78.31 31.4573C78.2999 31.4472 78.2797 31.4269 78.2695 31.4168C77.0455 30.1928 75.3459 29.4239 73.4845 29.4239C71.6231 29.4239 69.9337 30.1826 68.7097 31.4067C67.8902 32.2261 67.2833 33.2479 66.9595 34.391C64.4811 32.4487 62.8827 29.434 62.8827 26.0451C62.8827 20.1878 67.6272 15.4432 73.4845 15.4432ZM73.4845 13.9258C66.8078 13.9258 61.3652 19.3582 61.3652 26.0451C61.3652 29.7982 63.0648 33.2782 66.0288 35.5949C66.302 35.8073 66.6257 35.9186 66.9595 35.9186C67.1214 35.9186 67.2833 35.8983 67.435 35.8478C67.9206 35.6859 68.2848 35.3015 68.4264 34.8159C68.6692 33.9358 69.1345 33.1366 69.782 32.4993C70.7835 31.5079 72.0986 30.9616 73.4845 30.9616C74.8705 30.9616 76.1755 31.4978 77.1669 32.479C77.1871 32.4993 77.2073 32.5296 77.2377 32.5498C77.8548 33.1771 78.31 33.9661 78.5528 34.8159C78.6843 35.3015 79.0586 35.696 79.5442 35.8478C79.6959 35.8983 79.8578 35.9186 80.0197 35.9186C80.3535 35.9186 80.6873 35.8073 80.9503 35.5949C83.9043 33.2782 85.6038 29.7982 85.6038 26.0552C85.6038 19.3785 80.1714 13.9359 73.4845 13.9359V13.9258Z" fill="#F36103"/>
<path d="M73.4847 37.4059C70.9252 37.4059 68.5075 36.5764 66.4943 34.9982C66.2515 34.806 66.1504 34.4924 66.2313 34.199C66.5854 32.9446 67.253 31.8015 68.1736 30.8809C69.6 29.4545 71.4816 28.6755 73.4847 28.6755C75.4877 28.6755 77.3794 29.4646 78.8058 30.891C79.7365 31.8419 80.3941 32.9648 80.738 34.199C80.819 34.4924 80.7178 34.8161 80.475 34.9982C78.4619 36.5764 76.0441 37.4059 73.4847 37.4059Z" fill="white"/>
<path d="M73.4949 29.4242C75.3563 29.4242 77.0558 30.193 78.2799 31.4171C78.2799 31.4272 78.3001 31.4474 78.3203 31.4576C79.1195 32.2669 79.7063 33.2684 80.0199 34.3913C78.2192 35.7974 75.9531 36.6371 73.4949 36.6371C71.0366 36.6371 68.7706 35.7974 66.9699 34.3913C67.2936 33.2481 67.9006 32.2264 68.72 31.407C69.9441 30.1829 71.6335 29.4242 73.4949 29.4242ZM73.4949 27.9067C71.2895 27.9067 69.2157 28.7666 67.6477 30.3346C66.636 31.3463 65.8975 32.6108 65.5131 33.9866C65.3513 34.5835 65.5536 35.2107 66.0392 35.585C68.1838 37.2643 70.7635 38.1545 73.4949 38.1545C76.2263 38.1545 78.8059 37.2643 80.9607 35.585C81.4463 35.2107 81.6486 34.5734 81.4867 33.9765C81.1124 32.631 80.3942 31.3969 79.423 30.4055C79.4028 30.3852 79.3825 30.365 79.3623 30.3448C77.7943 28.7767 75.7103 27.9067 73.505 27.9067H73.4949Z" fill="#F36103"/>
<path d="M73.4847 28.4627C75.7028 28.4627 77.5008 26.6647 77.5008 24.4466C77.5008 22.2286 75.7028 20.4304 73.4847 20.4304C71.2666 20.4304 69.4685 22.2286 69.4685 24.4466C69.4685 26.6647 71.2666 28.4627 73.4847 28.4627Z" fill="white" stroke="#F36103" stroke-width="1.51744" stroke-linejoin="round"/>
</g>
</g>
</g>
<defs>
<clipPath id="clip0_41_524">
<rect width="87" height="86" fill="white"/>
</clipPath>
<clipPath id="clip1_41_524">
<rect width="87" height="85.9884" fill="white" transform="translate(0 0.00585938)"/>
</clipPath>
</defs>
</svg>
