<svg width="36" height="80" viewBox="0 0 36 80" fill="none" xmlns="http://www.w3.org/2000/svg">
<path d="M30.6873 35.1734V34.4425C31.62 34.2243 32.3236 33.3898 32.3236 32.3916C32.3236 31.2352 31.3745 30.2861 30.2127 30.2861C29.0564 30.2861 28.1073 31.2352 28.1073 32.3916C28.1073 33.3516 28.7509 34.1534 29.6291 34.4043V35.1734C29.6291 35.697 29.1982 36.128 28.6745 36.128H22.7836V37.1861H28.6745C29.7818 37.1861 30.6873 36.2807 30.6873 35.1734Z" fill="#FFFEFE"/>
<path d="M26.6673 30.2363V29.5054C27.6 29.2872 28.3036 28.4527 28.3036 27.4545C28.3036 26.2981 27.3545 25.3545 26.1927 25.3545C25.0364 25.3545 24.0873 26.2981 24.0873 27.4545C24.0873 28.4145 24.7309 29.2163 25.6091 29.4672V30.2363C25.6091 30.7599 25.1782 31.1909 24.6545 31.1909H22.7836V32.249H24.6545C25.7618 32.249 26.6673 31.3436 26.6673 30.2363Z" fill="#FFFEFE"/>
<path d="M30.6873 48.4276V47.6967C30.6873 46.5895 29.7818 45.6895 28.68 45.6895H22.7891V46.7476H28.68C29.2036 46.7476 29.6345 47.1785 29.6345 47.7022V48.4713C28.7564 48.7276 28.1127 49.5295 28.1127 50.484C28.1127 51.6404 29.0618 52.5895 30.2182 52.5895C31.38 52.5895 32.3291 51.6404 32.3291 50.484C32.3182 49.4804 31.6145 48.6458 30.6873 48.4276Z" fill="#FFFEFE"/>
<path d="M25.7782 51.9511V51.2202C25.7782 50.1074 24.8782 49.2129 23.7709 49.2129H22.7891V50.2711H23.7709C24.2945 50.2711 24.7255 50.6965 24.7255 51.2256V51.9893C23.8527 52.2511 23.2091 53.0474 23.2091 54.0074C23.2091 55.1638 24.1527 56.1074 25.3091 56.1074C26.4709 56.1074 27.42 55.1638 27.42 54.0074C27.4091 53.0038 26.7109 52.1693 25.7782 51.9511Z" fill="#FFFEFE"/>
<path d="M30.1527 43.54C31.3145 43.54 32.2636 42.5909 32.2636 41.4291C32.2636 40.2727 31.3145 39.3291 30.1527 39.3291C29.1818 39.3291 28.3582 40 28.1291 40.9055H22.7891V41.9636H28.1291C28.3636 42.8691 29.1764 43.54 30.1527 43.54Z" fill="#FFFEFE"/>
<path d="M17.1164 23.8984C14.5964 23.8984 12.5509 25.9439 12.5509 28.5075C12.5509 28.7693 12.5945 29.0312 12.6382 29.2875C12.1582 29.113 11.64 29.0257 11.0727 29.0257C8.55272 29.0257 6.50727 31.0712 6.50727 33.6348C6.50727 33.9075 6.53454 34.1693 6.58363 34.4312C6.58909 34.4366 6.6 34.4421 6.60545 34.4475C7.38 35.2657 8.43273 35.713 9.56727 35.713C9.86182 35.713 10.0964 35.9475 10.0964 36.2421C10.0964 36.5366 9.86182 36.7712 9.56727 36.7712C8.38909 36.7712 7.28182 36.3784 6.37636 35.6639C4.78363 36.373 3.68182 37.9657 3.68182 39.8148C3.68182 41.9475 5.16 43.7693 7.16182 44.2493C6.72545 44.9475 6.50727 45.7275 6.50727 46.5948C6.50727 49.0712 8.55272 51.1603 11.0727 51.1603C11.3018 51.1603 11.5309 51.1384 11.76 51.1057C12.2891 49.5021 13.5709 48.2693 15.2018 47.8166C14.5527 47.1948 14.0727 46.3984 13.8273 45.5039C13.3527 45.8966 12.7745 46.1803 12.12 46.3057C12.0873 46.3112 12.0545 46.3166 12.0218 46.3166C11.7709 46.3166 11.5527 46.1421 11.5036 45.8857C11.4491 45.5966 11.6345 45.3239 11.9236 45.2639C12.6709 45.1221 13.2818 44.6857 13.6745 44.1021C13.6964 44.0203 13.7345 43.9493 13.7945 43.8893C14.0836 43.3657 14.2091 42.7439 14.1 42.0948C14.0509 41.8057 14.2473 41.533 14.5364 41.4839C14.8255 41.4348 15.0982 41.6312 15.1473 41.9203C15.3 42.8257 15.1309 43.6984 14.7218 44.4348C14.8691 46.5457 16.6145 48.1712 18.7745 48.1712C19.0691 48.1712 19.3036 48.4057 19.3036 48.7003C19.3036 48.9948 19.0691 49.2293 18.7745 49.2293C17.9345 49.2293 17.1436 49.033 16.4455 48.6839C14.5255 48.7493 12.9818 50.1293 12.6327 51.9621C13.0145 54.1003 14.8745 55.7257 17.1218 55.7257C19.6418 55.7257 21.7309 53.6803 21.7309 51.1603V39.5093C21.6 39.5203 21.4691 39.5366 21.3436 39.5366C20.6455 39.5366 19.9582 39.3512 19.3364 38.9966C18.6055 38.5712 18.0382 37.9384 17.6945 37.1748C17.0836 37.5293 16.3964 37.7148 15.6764 37.7148C15.6055 37.7148 15.5345 37.7148 15.4636 37.7093C15.1691 37.693 14.9455 37.4475 14.9618 37.153C14.9782 36.8584 15.2291 36.6403 15.5182 36.6512C16.3091 36.6893 17.0727 36.4221 17.6618 35.8984C18.2564 35.3693 18.6055 34.633 18.6436 33.8312C18.66 33.5366 18.9164 33.313 19.2 33.3293C19.4891 33.3457 19.7182 33.5912 19.7018 33.8857C19.6527 34.8784 19.2491 35.7893 18.5727 36.4875C18.8073 37.1584 19.2545 37.7203 19.8709 38.0748C20.4382 38.4021 21.0873 38.5221 21.7364 38.4348V28.5075C21.7255 25.9384 19.6364 23.8984 17.1164 23.8984Z" fill="#FFFEFE"/>
</svg>
