<svg width="36" height="80" viewBox="0 0 36 80" fill="none" xmlns="http://www.w3.org/2000/svg">
<path fill-rule="evenodd" clip-rule="evenodd" d="M14.25 25C14.6642 25 15 25.3358 15 25.75V32.0074C15 32.803 14.6839 33.5661 14.1213 34.1287L13.7435 34.5066C12.7805 35.4695 12.7805 37.0306 13.7435 37.9935C14.4938 38.7438 15.6403 38.9299 16.5895 38.4553L16.7713 38.3644C17.5448 37.9776 18.4552 37.9776 19.2287 38.3644L19.4105 38.4553C20.3597 38.9299 21.5062 38.7438 22.2565 37.9935C23.2195 37.0306 23.2195 35.4695 22.2565 34.5066L21.8787 34.1287C21.316 33.5661 21 32.803 21 32.0074V25.75C21 25.3358 21.3358 25 21.75 25C22.1642 25 22.5 25.3358 22.5 25.75V27.2682C27.7434 29.1215 31.5 34.122 31.5 40C31.5 45.878 27.7434 50.8786 22.5 52.7318V54.25C22.5 54.6642 22.1642 55 21.75 55C21.3358 55 21 54.6642 21 54.25V47.9927C21 47.197 21.316 46.434 21.8787 45.8713L22.2565 45.4935C23.2195 44.5306 23.2195 42.9695 22.2565 42.0066C21.5062 41.2562 20.3597 41.0701 19.4105 41.5448L19.2287 41.6357C18.4552 42.0224 17.5448 42.0224 16.7713 41.6357L16.5895 41.5448C15.6403 41.0701 14.4938 41.2562 13.7435 42.0066C12.7805 42.9695 12.7805 44.5305 13.7435 45.4935L14.1213 45.8713C14.6839 46.434 15 47.197 15 47.9927V54.25C15 54.6642 14.6642 55 14.25 55C13.8358 55 13.5 54.6642 13.5 54.25V52.7318C8.2566 50.8786 4.5 45.878 4.5 40C4.5 34.122 8.2566 29.1215 13.5 27.2682V25.75C13.5 25.3358 13.8358 25 14.25 25Z" fill="#FFFEFE"/>
</svg>
