<svg viewBox="0 0 22 22" fill="none" xmlns="http://www.w3.org/2000/svg">
<path d="M11 2.75C10.1263 2.75 9.32064 2.96484 8.58301 3.39453C7.84538 3.82422 7.26172 4.40788 6.83203 5.14551C6.40234 5.88314 6.1875 6.6888 6.1875 7.5625C6.1875 8.36458 6.3737 9.11296 6.74609 9.80762C7.11849 10.5023 7.62695 11.0716 8.27148 11.5156C7.32617 11.888 6.48828 12.4251 5.75781 13.127C5.02734 13.8288 4.46159 14.638 4.06055 15.5547C3.64518 16.5143 3.4375 17.5169 3.4375 18.5625H4.8125C4.8125 17.5742 5.03451 16.6432 5.47852 15.7695C5.92253 14.9102 6.53125 14.1904 7.30469 13.6104C8.07812 13.0303 8.9375 12.6543 9.88281 12.4824L10.3125 13.75H11.6875L12.1172 12.4824C13.0625 12.6543 13.9219 13.0303 14.6953 13.6104C15.4688 14.1904 16.0775 14.9102 16.5215 15.7695C16.9655 16.6432 17.1875 17.5742 17.1875 18.5625H18.5625C18.5625 17.5169 18.3548 16.5143 17.9395 15.5547C17.5384 14.638 16.9727 13.8288 16.2422 13.127C15.5117 12.4251 14.6738 11.888 13.7285 11.5156C14.373 11.0716 14.8815 10.5023 15.2539 9.80762C15.6263 9.11296 15.8125 8.36458 15.8125 7.5625C15.8125 6.6888 15.5977 5.88314 15.168 5.14551C14.7383 4.40788 14.1546 3.82422 13.417 3.39453C12.6794 2.96484 11.8737 2.75 11 2.75ZM11 4.125C11.6302 4.125 12.2067 4.27897 12.7295 4.58691C13.2523 4.89486 13.6676 5.31022 13.9756 5.83301C14.2835 6.35579 14.4375 6.93229 14.4375 7.5625C14.4375 8.19271 14.2835 8.76921 13.9756 9.29199C13.6676 9.81478 13.2523 10.2301 12.7295 10.5381C12.2067 10.846 11.6302 11 11 11C10.3698 11 9.79329 10.846 9.27051 10.5381C8.74772 10.2301 8.33236 9.81478 8.02441 9.29199C7.71647 8.76921 7.5625 8.19271 7.5625 7.5625C7.5625 6.93229 7.71647 6.35579 8.02441 5.83301C8.33236 5.31022 8.74772 4.89486 9.27051 4.58691C9.79329 4.27897 10.3698 4.125 11 4.125ZM10.3125 14.4375L9.625 18.5625H12.375L11.6875 14.4375H10.3125Z" fill="currentColor"/>
</svg>
