<svg viewBox="0 0 36 36" fill="none" xmlns="http://www.w3.org/2000/svg">
<path d="M15.0861 16.5693C14.0432 18.0983 14.1019 19.7873 14.321 21.6712C16.205 21.8904 17.894 21.9492 19.423 20.9062L15.0861 16.5693Z" fill="currentColor"/>
<path d="M21.6789 14.3135C19.7949 14.0944 18.106 14.0356 16.577 15.0786L20.9139 19.4155C21.9568 17.8865 21.898 16.1975 21.6789 14.3135Z" fill="currentColor"/>
<path d="M33.2176 2.77458C29.5181 -0.924859 23.4988 -0.924859 19.7994 2.77458L12.0363 10.5377L15.066 13.5673C17.1069 12.0015 19.3307 11.9584 21.4226 12.1653C21.1886 9.79884 21.274 7.26356 23.5223 5.01531L25.0132 6.5062C23.275 8.24442 23.3119 10.1971 23.5707 12.4215C25.795 12.6801 27.7477 12.7171 29.4859 10.979L30.9768 12.4698C28.7286 14.7181 26.1934 14.8037 23.8269 14.5695C24.0338 16.6615 23.9907 18.8853 22.4249 20.9262L25.4546 23.9558L33.2177 16.1927C36.917 12.4933 36.917 6.47394 33.2176 2.77458Z" fill="currentColor"/>
<path d="M20.934 22.4168C18.8931 23.9827 16.6692 24.0258 14.5773 23.8188C14.8113 26.1852 14.7259 28.7206 12.4776 30.9688L10.9867 29.4779C12.7249 27.7397 12.688 25.7869 12.4293 23.5627C10.2049 23.3041 8.25234 23.267 6.51405 25.0052L5.02309 23.5143C7.27134 21.2661 9.80656 21.1804 12.173 21.4146C11.9661 19.3227 12.0092 17.0989 13.575 15.058L10.5454 12.0283L2.78236 19.7915C-0.917077 23.4908 -0.917077 29.5102 2.78236 33.2096C6.48179 36.9091 12.5011 36.9091 16.2005 33.2096L23.9637 25.4465L20.934 22.4168Z" fill="currentColor"/>
</svg>
