<svg  viewBox="0 0 18 17" fill="currentColor" xmlns="http://www.w3.org/2000/svg">
<g clip-path="url(#clip0_203_47)">
<g clip-path="url(#clip1_203_47)">
<path d="M17.5352 11.7713C17.5352 9.50992 15.9385 7.76676 13.4495 7.86097C13.6843 4.70444 16.1263 1.9719 17.77 0.699858L17.3004 -0.00683594C13.8722 2.16035 9.55163 6.63606 9.55163 11.2531C9.55163 13.8914 11.0544 15.823 13.4965 15.823C15.9385 15.823 17.5352 13.9385 17.5352 11.7713ZM7.98356 11.7713C7.98356 9.50992 6.38684 7.76676 3.89785 7.86097C4.13266 4.70444 6.57468 1.9719 8.21835 0.699858L7.74875 -0.00683594C4.3205 2.16035 0 6.63606 0 11.2531C0 13.8914 1.50278 15.823 3.9448 15.823C6.38684 15.823 7.98356 13.9385 7.98356 11.7713Z" fill="#1C1D1F"/>
</g>
</g>
<defs>
<clipPath id="clip0_203_47">
<rect width="17.77" height="16.09" fill="currentColor"/>
</clipPath>
<clipPath id="clip1_203_47">
<rect width="17.77" height="16.1041" fill="currentColor" transform="translate(0 -0.00683594)"/>
</clipPath>
</defs>
</svg>
