<svg width="59" height="59" viewBox="0 0 59 59" fill="none" xmlns="http://www.w3.org/2000/svg">
<rect width="59" height="59" rx="29.5" fill="#101820"/>
<path d="M38.5283 32.0859C38.8408 32.2422 38.958 32.6328 38.7627 32.9453L37.5127 35.0938C37.3564 35.4062 36.9658 35.4844 36.6533 35.3281L31.3799 32.2812V38.375C31.3799 38.7266 31.0674 39 30.7549 39H28.2158C27.9033 39 27.5908 38.7266 27.5908 38.375V32.2812L22.3174 35.3281C22.0049 35.4844 21.6143 35.4062 21.458 35.0938L20.208 32.9453C20.0127 32.6328 20.1299 32.2422 20.4424 32.0859L25.7158 29L20.4424 25.9531C20.1299 25.7969 20.0127 25.4062 20.208 25.0938L21.458 22.9453C21.6143 22.6328 22.0049 22.5547 22.3174 22.7109L27.5908 25.7578V19.625C27.5908 19.3125 27.9033 19 28.2158 19H30.7549C31.0674 19 31.3799 19.3125 31.3799 19.625V25.7578L36.6533 22.7109C36.9658 22.5156 37.3564 22.6328 37.5127 22.9453L38.7627 25.0938C38.958 25.4062 38.8408 25.7969 38.5283 25.9531L33.2549 29L38.5283 32.0859Z" fill="white"/>
</svg>
