<svg viewBox="0 0 24 25" fill="none" xmlns="http://www.w3.org/2000/svg">
<path fill-rule="evenodd" clip-rule="evenodd" d="M2.02783 12.1543C2.41136 6.98175 6.72957 2.9043 12.0001 2.9043C11.1693 2.9043 10.4295 3.2685 9.82093 3.82542C9.21541 4.37955 8.70371 5.15307 8.28983 6.06745C7.87352 6.98722 7.55013 8.06298 7.33126 9.23041C7.1558 10.1662 7.04903 11.1528 7.01344 12.1543H2.02783ZM2.02783 13.6543H7.01344C7.04903 14.6558 7.1558 15.6424 7.33126 16.5782C7.55013 17.7456 7.87351 18.8214 8.28983 19.7411C8.70371 20.6555 9.21541 21.429 9.82093 21.9832C10.4295 22.5401 11.1693 22.9043 12.0001 22.9043C6.72957 22.9043 2.41136 18.8268 2.02783 13.6543Z" fill="currentColor"/>
<path d="M12.0001 4.29965C11.7251 4.29965 11.3699 4.41666 10.9567 4.79471C10.5406 5.17556 10.1239 5.77244 9.75585 6.58567C9.3902 7.3935 9.09329 8.3687 8.88897 9.45849C8.72806 10.3167 8.62824 11.2265 8.59321 12.1543H15.4071C15.372 11.2265 15.2722 10.3167 15.1113 9.45849C14.907 8.3687 14.6101 7.3935 14.2444 6.58567C13.8763 5.77244 13.4597 5.17556 13.0435 4.79471C12.6304 4.41666 12.2751 4.29965 12.0001 4.29965Z" fill="currentColor"/>
<path d="M8.88897 16.3501C9.09329 17.4399 9.3902 18.4151 9.75585 19.2229C10.1239 20.0362 10.5406 20.633 10.9567 21.0139C11.3698 21.3919 11.7251 21.5089 12.0001 21.5089C12.2751 21.5089 12.6304 21.3919 13.0435 21.0139C13.4597 20.633 13.8763 20.0362 14.2444 19.2229C14.6101 18.4151 14.907 17.4399 15.1113 16.3501C15.2722 15.4919 15.372 14.5821 15.4071 13.6543H8.59321C8.62824 14.5821 8.72806 15.4919 8.88897 16.3501Z" fill="currentColor"/>
<path d="M12.0001 2.9043C12.831 2.9043 13.5708 3.26851 14.1793 3.82542C14.7849 4.37955 15.2966 5.15307 15.7104 6.06745C16.1267 6.98722 16.4501 8.06298 16.669 9.23041C16.8445 10.1662 16.9512 11.1528 16.9868 12.1543H21.9724C21.5889 6.98175 17.2707 2.9043 12.0001 2.9043Z" fill="currentColor"/>
<path d="M16.669 16.5782C16.4501 17.7456 16.1267 18.8214 15.7104 19.7411C15.2966 20.6555 14.7849 21.429 14.1793 21.9832C13.5708 22.5401 12.831 22.9043 12.0001 22.9043C17.2707 22.9043 21.5889 18.8268 21.9724 13.6543H16.9868C16.9512 14.6558 16.8445 15.6424 16.669 16.5782Z" fill="currentColor"/>
</svg>
